<svg width="14" height="14" viewBox="0 0 14 14" fill="none" xmlns="http://www.w3.org/2000/svg">
<path d="M11.164 6.62198C10.8523 6.62198 10.5996 6.91202 10.5996 7.26981V12.1454C10.5996 12.4536 10.381 12.7044 10.1125 12.7044H1.61601C1.34743 12.7044 1.12894 12.4536 1.12894 12.1454V2.39423C1.12894 2.08599 1.34745 1.83523 1.61601 1.83523H5.86423C6.17599 1.83523 6.4287 1.5452 6.4287 1.18741C6.4287 0.829622 6.17599 0.539588 5.86423 0.539588H1.61601C0.724944 0.539588 0 1.37156 0 2.39423V12.1454C0 13.168 0.724944 14 1.61601 14H10.1125C11.0036 14 11.7285 13.168 11.7285 12.1454V7.26981C11.7285 6.91202 11.4758 6.62198 11.164 6.62198Z" fill="#677788"/>
<path d="M10.9366 0V1.27447L10.9334 1.25476C10.1587 1.54496 9.39488 1.89532 8.6664 2.33796C8.30242 2.55911 7.94797 2.80426 7.60909 3.07561C7.27028 3.34678 6.94698 3.64435 6.64818 3.96996C6.34931 4.29521 6.07494 4.64784 5.83331 5.0232C5.59153 5.3984 5.38275 5.79612 5.21097 6.20744C5.03898 6.61875 4.90397 7.04334 4.80405 7.47226C4.70387 7.90127 4.63913 8.33469 4.60273 8.76625C4.74172 8.36296 4.90556 7.97557 5.09598 7.61294C5.28614 7.2502 5.50221 6.91233 5.74072 6.60558C5.97914 6.29866 6.23978 6.0229 6.51717 5.77974C6.79457 5.53644 7.08861 5.32557 7.39415 5.14454C7.69963 4.96328 8.01702 4.8123 8.3416 4.68624C8.6662 4.56012 8.99803 4.45878 9.33484 4.37873C9.86017 4.25382 10.3961 4.17869 10.9366 4.13878V5.72503L14 2.86251L10.9366 0Z" fill="#677788"/>
</svg>
