<svg width="17" height="16" viewBox="0 0 17 16" fill="none" xmlns="http://www.w3.org/2000/svg">
<path d="M8.86999 1.91338C9.40332 1.34449 10.0255 0.962267 10.7367 0.766711C11.4478 0.571156 12.1767 0.5356 12.9233 0.660045C13.67 0.784489 14.3455 1.06893 14.95 1.51338C15.5544 1.95782 16.0344 2.52671 16.39 3.22004C16.7455 3.91338 16.9055 4.68671 16.87 5.54004C16.8344 6.46449 16.5678 7.44227 16.07 8.47338C15.5011 9.5756 14.6478 10.6956 13.51 11.8334C12.2655 13.1134 10.7189 14.3578 8.86999 15.5667C7.0211 14.3578 5.47444 13.1134 4.22999 11.8334C3.09221 10.6956 2.23888 9.5756 1.66999 8.47338C1.17221 7.44227 0.905547 6.46449 0.869991 5.54004C0.834436 4.68671 0.994436 3.91338 1.34999 3.22004C1.70555 2.52671 2.18555 1.95782 2.78999 1.51338C3.39444 1.06893 4.06999 0.784489 4.81666 0.660045C5.56332 0.5356 6.29221 0.571156 7.00332 0.766711C7.71444 0.962267 8.33666 1.34449 8.86999 1.91338Z" fill="#377DFF"/>
</svg>
