<svg width="200" height="200" viewBox="0 0 200 200" fill="none" xmlns="http://www.w3.org/2000/svg">
<path d="M95.5475 196.392C94.5165 196.722 65.1268 196.344 64.0179 195.621C63.5917 195.354 63.3975 191.092 63.3118 185.935C63.3113 185.882 63.3109 185.828 63.3109 185.774C63.2907 184.712 63.277 183.617 63.2751 182.508C63.2747 182.355 63.2742 182.202 63.2696 182.05C63.2284 174.608 63.3471 166.886 63.3471 166.886L83.0074 167.082L82.4158 182.104L82.2747 185.808L82.2633 186.128C82.2633 186.128 93.4475 191.277 94.5834 192.199C95.7097 193.116 96.5785 196.065 95.5475 196.392Z" fill="white"/>
<path d="M86.7157 188.127C86.6392 188.105 86.5989 188.082 86.5943 188.06C86.5943 188.06 86.6392 188.082 86.7157 188.127Z" fill="#21325B"/>
<path d="M95.5455 196.39C94.5159 196.721 65.1267 196.346 64.016 195.621C63.6384 195.384 63.4404 191.99 63.3415 187.617C68.7274 188.735 89.5974 192.933 90.1683 191.158C90.3933 190.461 88.6081 189.253 87.48 188.574C90.5642 190.036 93.9812 191.708 94.5833 192.2C95.7073 193.117 96.5793 196.063 95.5455 196.39Z" fill="#21325B"/>
<path d="M57.3164 82.6871C57.3164 82.6871 61.729 132.078 62.4484 135.848C62.6147 136.707 62.7183 141.375 62.7857 147.375C62.9387 160.467 62.8475 184.082 62.8475 184.082H83.5645C83.5645 184.082 82.9496 143.168 82.0327 135.638C81.1158 128.103 75.2529 82.6871 75.2529 82.6871H57.3164Z" fill="white"/>
<path d="M82.6287 180.492C79.396 180.425 80.3248 180.399 77.0916 180.368C75.5094 180.353 65.1124 180.263 63.6342 180.506C63.6016 180.512 63.6016 180.566 63.6342 180.572C65.1128 180.815 75.5094 180.725 77.0916 180.71C80.3248 180.679 79.396 180.653 82.6287 180.586C82.6897 180.585 82.6897 180.493 82.6287 180.492Z" fill="#21325B"/>
<path d="M66.7842 157.103C66.7613 154.115 66.7384 151.126 66.7168 148.138C66.6958 145.244 66.6999 142.346 66.5615 139.454C66.2811 133.599 65.087 127.842 64.2374 122.053C63.3874 116.261 62.679 110.448 62.0375 104.629C61.3176 98.1016 60.6816 91.5647 60.0071 85.0323C60.0026 84.9881 59.9329 84.989 59.937 85.0341C60.913 96.698 62.0022 108.359 63.6262 119.954C64.0299 122.838 64.4725 125.715 64.95 128.588C65.4334 131.496 65.914 134.405 66.1445 137.346C66.3704 140.224 66.4071 143.113 66.4369 145.999C66.4676 148.985 66.4974 151.972 66.5267 154.958C66.5913 161.592 66.6559 171.803 66.7205 178.437C66.7219 178.565 66.9217 178.561 66.9207 178.432C66.8749 172.515 66.8296 163.02 66.7842 157.103Z" fill="#21325B"/>
<path d="M52.949 82.6871C52.949 82.6871 61.729 132.078 62.4484 135.848C62.6147 136.707 62.7183 141.375 62.7857 147.375L62.7906 147.393L72.6634 82.6871H52.949Z" fill="#21325B"/>
<path d="M42.9646 197.98C41.9199 197.695 17.5436 181.362 17.0139 180.154C16.8045 179.698 18.9902 176.027 21.7597 171.666C21.789 171.621 21.8183 171.576 21.8476 171.531C22.4163 170.631 23.0078 169.708 23.6173 168.779C23.7011 168.651 23.785 168.523 23.8647 168.393C27.9305 162.145 32.2836 155.75 32.2836 155.75L48.6218 166.628L39.8511 178.872L37.6924 181.893L37.5063 182.155C37.5063 182.155 44.025 192.557 44.4676 193.947C44.9047 195.329 44.0076 198.269 42.9646 197.98Z" fill="white"/>
<path d="M40.5226 186.466C40.4768 186.41 40.4562 186.373 40.4612 186.355C40.4612 186.355 40.4818 186.391 40.5226 186.466Z" fill="#21325B"/>
<path d="M42.9629 197.98C41.9173 197.696 17.5442 181.363 17.014 180.152C16.8344 179.765 18.4024 177.025 20.589 173.523C23.9849 176.729 40.3974 192.101 41.8632 190.856C42.1711 190.591 42.0428 189.875 41.7629 189.09C43.1018 191.328 44.2881 193.38 44.4696 193.946C44.903 195.329 44.0063 198.267 42.9629 197.98Z" fill="#21325B"/>
<path d="M39.6143 182.173L21.9385 169.504C21.9385 169.504 44.8027 139.151 44.9072 136.375C45.063 132.247 47.0531 115.211 48.7242 101.419C48.7242 101.419 45.5556 93.9513 51.4859 82.6707H75.2715C75.2715 82.6707 73.6774 93.4049 70.9487 100.211C70.9487 100.211 68.8702 100.852 65.6604 102.612C65.6604 102.612 63.6951 136.277 63.1035 140.068C61.5364 150.104 39.6143 182.173 39.6143 182.173Z" fill="white"/>
<path d="M40.8424 177.896C38.2338 175.996 39.0095 176.505 36.3798 174.634C35.0927 173.718 26.6308 167.71 25.2799 167.065C25.2501 167.051 25.2185 167.096 25.2419 167.119C26.3118 168.162 34.8782 174.023 36.1823 174.913C38.8478 176.733 38.1027 176.182 40.7883 177.972C40.8387 178.007 40.8914 177.932 40.8424 177.896Z" fill="#21325B"/>
<path d="M52.6004 92.7373C53.1402 92.5996 53.718 92.5559 54.2683 92.4688C54.7133 92.3987 55.1564 92.3207 55.5963 92.2246C56.4243 92.0432 57.2623 91.7679 57.9396 91.2434C58.7025 90.6528 59.0902 89.7568 59.459 88.8959C59.6781 88.3846 59.904 87.8769 60.1331 87.3697C60.244 87.1241 60.3562 86.8789 60.4708 86.6346C60.6046 86.3489 60.7888 86.0513 60.8868 85.7523C60.9011 85.709 60.9716 85.7323 60.9542 85.7724C60.8671 85.9715 60.8305 86.1985 60.7668 86.4077C60.6917 86.6542 60.6211 86.9017 60.5446 87.1478C60.4076 87.5866 60.2742 88.0273 60.1285 88.4634C59.8669 89.2468 59.6341 90.0685 59.1891 90.7731C58.3749 92.0623 56.9196 92.5814 55.4643 92.7646C55.0473 92.817 54.6267 92.8466 54.2069 92.8703C53.6873 92.8995 53.1347 92.946 52.6169 92.8822C52.5377 92.8722 52.5152 92.7591 52.6004 92.7373Z" fill="#21325B"/>
<path d="M71.8503 99.7445C69.7067 100.478 67.6374 101.52 65.6593 102.612C65.5818 102.655 65.6327 102.775 65.717 102.739C67.8024 101.848 69.9294 100.995 71.963 99.9915C72.1225 99.9131 72.0148 99.688 71.8503 99.7445Z" fill="#21325B"/>
<path d="M72.5133 85.5117C72.5078 85.4402 72.3809 85.4242 72.3818 85.5012C72.3988 87.9635 72.2407 90.1305 72.0322 92.4315C71.9351 93.5001 71.0709 99.4045 69.2082 98.9739C68.8966 98.9019 68.7372 98.5965 68.6881 98.129C68.6295 97.5671 68.8421 96.8771 68.9356 96.3184C69.1422 95.0824 69.3081 93.8424 69.4149 92.5937C69.6142 90.2631 69.6238 87.9321 69.3392 85.6088C69.3301 85.5327 69.2192 85.5381 69.2192 85.6156C69.2219 88.8422 69.1372 92.0623 68.6519 95.2579C68.4187 96.7937 67.6411 99.1056 69.2559 99.3421C70.9013 99.5827 71.9649 95.71 72.1656 94.6504C72.726 91.6941 72.7479 88.5026 72.5133 85.5117Z" fill="#21325B"/>
<path d="M69.2565 99.1334C69.0884 99.5299 68.9527 99.9423 68.8377 100.357C68.7484 100.68 68.6265 101.027 68.6636 101.364C68.6709 101.429 68.7575 101.435 68.7924 101.391C69.0109 101.116 69.103 100.739 69.2254 100.412C69.367 100.033 69.5168 99.6579 69.6479 99.2756C69.7345 99.0208 69.3606 98.8887 69.2565 99.1334Z" fill="#21325B"/>
<path d="M53.2293 84.2603C52.5828 85.5691 52.071 86.94 51.6466 88.3327C51.2265 89.7276 50.9153 91.1532 50.7174 92.5923C50.5038 94.0306 50.4745 95.4889 50.5428 96.9341C50.6033 98.3851 50.9144 99.8074 51.3053 101.197L51.314 101.227L51.3117 101.255C50.7838 107.149 50.2138 113.039 49.6176 118.928C49.0142 124.817 48.4464 130.703 47.629 136.579C47.5845 136.944 47.4979 137.32 47.4319 137.691C47.3238 138.082 47.1414 138.423 46.9655 138.751C46.6094 139.412 46.2163 140.041 45.825 140.673C45.0336 141.931 44.2148 143.167 43.3868 144.398C41.729 146.857 40.0193 149.279 38.3074 151.7C34.885 156.542 31.3778 161.323 27.85 166.088C31.2816 161.254 34.6751 156.394 38.0591 151.528C39.7467 149.092 41.4137 146.643 43.0601 144.181C43.8821 142.95 44.695 141.712 45.4772 140.459C45.8635 139.83 46.253 139.2 46.5966 138.556C46.7698 138.232 46.9352 137.911 47.0228 137.589C47.0837 137.231 47.1639 136.885 47.2079 136.515C47.6175 133.595 47.925 130.649 48.2494 127.71L49.1961 118.886L51.0148 101.227L51.0207 101.285C50.6381 99.8653 50.3398 98.4174 50.2949 96.9477C50.2372 95.4835 50.2986 94.0115 50.5437 92.5677C50.7724 91.1226 51.1137 89.6971 51.5632 88.3071C52.0164 86.9185 52.5567 85.5559 53.2293 84.2603Z" fill="#21325B"/>
<path d="M73.0671 40.4006C71.8858 38.199 69.2116 37.0989 66.3789 36.9713C63.5462 36.8437 60.0005 37.3682 58.6437 41.5791C57.5426 44.998 57.8409 48.6598 56.8649 52.5339C55.8885 56.408 48.9455 64.7611 55.2126 71.1367C60.8423 76.8643 75.2665 76.2741 77.7867 67.8459C79.7846 61.1649 72.8778 52.9021 72.6483 50.0128C72.4187 47.124 74.362 42.8137 73.0671 40.4006Z" fill="#21325B"/>
<path d="M73.3412 44.5058C72.9151 46.4522 72.7249 48.4784 73.1204 50.5073C73.2166 51.0122 73.404 51.5244 73.6423 51.9897C73.8746 52.4591 74.1317 52.9089 74.3869 53.3574C74.9088 54.2483 75.4248 55.1329 75.894 56.0361C76.8397 57.8349 77.5848 59.7189 77.9514 61.6717C78.3189 63.6222 78.2781 65.6297 77.8611 67.5806C78.1915 66.6359 78.3876 65.6474 78.4889 64.6467C78.5736 63.6441 78.5393 62.6282 78.4046 61.6206C78.1397 59.599 77.3836 57.6444 76.4347 55.8083C75.9535 54.8909 75.4197 53.9995 74.8914 53.1158C74.3617 52.2272 73.8137 51.375 73.5836 50.4243C73.3293 49.4732 73.2432 48.477 73.2267 47.4867C73.1891 46.4932 73.2482 45.4988 73.3412 44.5058Z" fill="#21325B"/>
<path d="M58.1135 44.5454C57.6777 46.531 57.3221 48.5317 56.7823 50.4772C56.5024 51.4465 56.2045 52.4095 55.8031 53.331C55.4159 54.2433 54.8821 55.1233 54.3937 56.0257C53.9079 56.9303 53.441 57.8495 53.0323 58.7947C52.6396 59.7467 52.3033 60.7251 52.0934 61.735C51.9 62.749 51.8368 63.7885 51.9504 64.8207C52.1149 65.8516 52.493 66.8465 53.0685 67.7328C52.6135 66.7895 52.3069 65.8079 52.2446 64.803C52.1942 63.8008 52.306 62.8042 52.5475 61.8339C53.0593 59.8971 53.9524 58.071 54.9343 56.2845C55.4081 55.3822 55.9434 54.5022 56.336 53.5292C56.7164 52.5681 57.0147 51.5828 57.2323 50.5843C57.6841 48.59 57.9238 46.5693 58.1135 44.5454Z" fill="#21325B"/>
<path d="M71.8111 59.877C80.131 60.7014 89.6189 59.3329 91.8903 56.9412C94.5205 54.1722 98.9006 42.8538 99.8926 34.9255C100.109 33.1914 86.8361 32.5589 86.8137 33.7889C86.7367 38.0016 82.6104 49.2394 82.3126 49.8414C81.9708 50.5314 75.695 52.9568 71.4125 54.1207C64.6602 55.9564 65.9162 59.2932 71.8111 59.877Z" fill="white"/>
<path d="M89.3795 59.2663L81.7172 49.969C81.7172 49.969 75.6513 51.9569 69.5597 54.519C63.4682 57.0816 65.285 59.6049 73.5527 60.5036C81.8203 61.4019 89.3795 59.2663 89.3795 59.2663Z" fill="#21325B"/>
<path d="M72.7303 58.7336C72.3454 58.7336 72.0338 59.0435 72.0338 59.4263C72.0338 59.8137 72.3454 60.119 72.7303 60.119C73.1198 60.119 73.4268 59.8137 73.4268 59.4263C73.4268 59.0435 73.1198 58.7336 72.7303 58.7336ZM72.7303 59.9823C72.4233 59.9823 72.1713 59.7362 72.1713 59.4263C72.1713 59.1209 72.4233 58.8703 72.7303 58.8703C73.0419 58.8703 73.2893 59.1209 73.2893 59.4263C73.2893 59.7362 73.0419 59.9823 72.7303 59.9823ZM79.0079 58.8065C78.623 58.8065 78.3068 59.1209 78.3068 59.5038C78.3068 59.8866 78.623 60.1919 79.0079 60.1919C79.3928 60.1919 79.6998 59.8866 79.6998 59.5038C79.6998 59.1209 79.3928 58.8065 79.0079 58.8065ZM79.0079 60.0597C78.6963 60.0597 78.4443 59.8091 78.4443 59.5038C78.4443 59.1939 78.6963 58.9432 79.0079 58.9432C79.3149 58.9432 79.5669 59.1939 79.5669 59.5038C79.5669 59.8091 79.3149 60.0597 79.0079 60.0597ZM75.9699 56.0767C75.585 56.0767 75.2689 56.3866 75.2689 56.7694C75.2689 57.1522 75.585 57.4621 75.9699 57.4621C76.3548 57.4621 76.6618 57.1522 76.6618 56.7694C76.6618 56.3866 76.3548 56.0767 75.9699 56.0767ZM75.9699 57.3254C75.6583 57.3254 75.4063 57.0793 75.4063 56.7694C75.4063 56.4641 75.6583 56.2088 75.9699 56.2088C76.2769 56.2088 76.529 56.4641 76.529 56.7694C76.529 57.0793 76.2769 57.3254 75.9699 57.3254ZM81.7664 55.94C81.3815 55.94 81.0699 56.2544 81.0699 56.6372C81.0699 57.02 81.3815 57.3254 81.7664 57.3254C82.1513 57.3254 82.4629 57.02 82.4629 56.6372C82.4629 56.2544 82.1513 55.94 81.7664 55.94ZM81.7664 57.1932C81.4594 57.1932 81.2028 56.9426 81.2028 56.6372C81.2028 56.3273 81.4594 56.0767 81.7664 56.0767C82.078 56.0767 82.3254 56.3273 82.3254 56.6372C82.3254 56.9426 82.078 57.1932 81.7664 57.1932ZM85.4092 58.492C85.0243 58.492 84.7082 58.8065 84.7082 59.1893C84.7082 59.5721 85.0243 59.8774 85.4092 59.8774C85.7941 59.8774 86.1057 59.5721 86.1057 59.1893C86.1057 58.8065 85.7941 58.492 85.4092 58.492ZM85.4092 59.7453C85.0976 59.7453 84.8456 59.4946 84.8456 59.1893C84.8456 58.8794 85.0976 58.6288 85.4092 58.6288C85.7208 58.6288 85.9683 58.8794 85.9683 59.1893C85.9683 59.4946 85.7208 59.7453 85.4092 59.7453ZM87.5033 56.9927C87.4071 57.1157 87.2559 57.1932 87.0817 57.1932C86.7747 57.1932 86.5181 56.9426 86.5181 56.6372C86.5181 56.4276 86.6373 56.2407 86.8114 56.1496L86.7197 56.0448C86.5181 56.1678 86.3852 56.3866 86.3852 56.6372C86.3852 57.02 86.6968 57.3254 87.0817 57.3254C87.2833 57.3254 87.4666 57.2388 87.5949 57.1021L87.5033 56.9927ZM78.7284 53.1053C78.3435 53.1053 78.0273 53.4152 78.0273 53.798C78.0273 54.1809 78.3435 54.4908 78.7284 54.4908C79.1133 54.4908 79.4203 54.1809 79.4203 53.798C79.4203 53.4152 79.1133 53.1053 78.7284 53.1053ZM78.7284 54.354C78.4168 54.354 78.1648 54.1079 78.1648 53.798C78.1648 53.4927 78.4168 53.2375 78.7284 53.2375C79.0354 53.2375 79.2828 53.4927 79.2828 53.798C79.2828 54.1079 79.0354 54.354 78.7284 54.354ZM85.148 54.1307C85.061 54.19 84.9556 54.2219 84.8456 54.2219C84.5386 54.2219 84.2866 53.9712 84.2866 53.6659C84.2866 53.5155 84.3462 53.3788 84.4424 53.2785L84.3553 53.1691C84.227 53.2967 84.1491 53.4745 84.1491 53.6659C84.1491 54.0487 84.4607 54.354 84.8456 54.354C84.9877 54.354 85.1206 54.313 85.2305 54.2355L85.148 54.1307ZM82.2429 50.6125V50.608L82.0459 50.371C82.0871 50.4484 82.1146 50.5396 82.1146 50.6399C82.1146 50.9497 81.8626 51.1958 81.5556 51.1958C81.244 51.1958 80.992 50.9497 80.992 50.6399C80.992 50.33 81.244 50.0793 81.5556 50.0793C81.6977 50.0793 81.826 50.134 81.9222 50.2206L81.716 49.9699C81.716 49.9699 81.464 50.052 81.0149 50.2024C80.9141 50.3209 80.8545 50.4758 80.8545 50.6399C80.8545 51.0227 81.1707 51.3326 81.5556 51.3326C81.9405 51.3326 82.2475 51.0227 82.2475 50.6399C82.2475 50.6307 82.2475 50.6216 82.2429 50.6125ZM72.6982 53.2967C72.602 53.2967 72.5104 53.315 72.4279 53.3514C72.1759 53.4563 71.9972 53.7069 71.9972 53.994C71.9972 54.3768 72.3133 54.6822 72.6982 54.6822C73.0831 54.6822 73.3902 54.3768 73.3902 53.994C73.3902 53.6112 73.0831 53.2967 72.6982 53.2967ZM72.6982 54.55C72.3867 54.55 72.1346 54.2993 72.1346 53.994C72.1346 53.6841 72.3867 53.4335 72.6982 53.4335C73.0052 53.4335 73.2573 53.6841 73.2573 53.994C73.2573 54.2993 73.0052 54.55 72.6982 54.55ZM69.4861 55.94C69.1012 55.94 68.7896 56.2544 68.7896 56.6372C68.7896 57.0155 69.1012 57.3254 69.4861 57.3254C69.871 57.3254 70.1826 57.0155 70.1826 56.6372C70.1826 56.2544 69.871 55.94 69.4861 55.94ZM69.4861 57.1932C69.1745 57.1932 68.9271 56.938 68.9271 56.6372C68.9271 56.3273 69.1745 56.0767 69.4861 56.0767C69.7931 56.0767 70.0497 56.3273 70.0497 56.6372C70.0497 56.938 69.7931 57.1932 69.4861 57.1932Z" fill="white"/>
<path d="M85.5143 58.8735C82.606 55.6816 80.0973 51.9328 79.6079 51.307C79.585 51.2774 79.6413 51.2473 79.6629 51.2783C80.1069 51.9145 83.4996 55.9204 85.5748 58.842C85.5991 58.8758 85.5423 58.904 85.5143 58.8735Z" fill="#21325B"/>
<path d="M84.6097 53.4841L89.3766 59.2672C89.3766 59.2672 81.8192 61.4009 73.5506 60.5032C70.5264 60.175 68.3668 59.6277 67.1447 58.9432L84.6097 53.4841Z" fill="black"/>
<path d="M90.3047 36.1149C89.7896 34.8106 87.2493 27.4661 86.9368 25.6542C86.3617 22.3214 86.5088 18.7508 87.8248 18.2117C88.8755 17.781 89.7676 19.5962 89.7676 19.5962C89.7676 19.5962 90.1379 17.3581 91.5716 17.2487C93.0059 17.1394 93.1058 19.5625 93.1058 19.5625C93.1058 19.5625 93.6543 17.2916 95.0926 17.2838C96.5309 17.2761 96.2212 19.7293 96.2212 19.7293C96.2212 19.7293 96.6253 17.6297 97.813 18.1196C99.2418 18.7089 98.0568 22.4955 98.345 24.5108C98.3886 24.8165 99.8269 29.4317 100.215 32.5694C100.407 34.1257 99.7027 35.4455 99.7027 35.4455L90.3047 36.1149Z" fill="white"/>
<path d="M96.3657 19.6445C95.5011 22.4313 95.6074 23.7994 96.3602 26.5711C96.3749 26.6253 96.2974 26.659 96.2768 26.6039C95.2912 23.9566 94.909 22.2599 96.2324 19.5957C96.297 19.4658 96.407 19.5123 96.3657 19.6445Z" fill="#21325B"/>
<path d="M93.1958 19.423C92.7985 22.4381 93.0226 23.9097 93.8373 26.8135C93.8487 26.8546 93.78 26.8783 93.7649 26.8377C92.7257 24.0555 92.2445 22.3875 93.0395 19.4271C93.0757 19.2931 93.2141 19.2854 93.1958 19.423Z" fill="#21325B"/>
<path d="M89.7932 19.6942C89.6988 22.6441 89.9173 24.2628 91.1444 26.9498C91.1733 27.0132 91.083 27.061 91.0478 27.0004C89.5288 24.3813 89.2406 22.3634 89.7029 19.7006C89.7341 19.5192 89.7991 19.5087 89.7932 19.6942Z" fill="#21325B"/>
<path d="M89.0175 36.8245C89.0175 36.8245 86.2975 34.3677 85.3421 33.026C84.3867 31.6844 82.6757 25.3817 84.0234 24.9369C85.7637 24.3626 87.4714 27.8075 88.0868 29.6035C88.0868 29.6035 92.1109 28.2714 93.8751 30.4799C95.6387 32.6888 89.0175 36.8245 89.0175 36.8245Z" fill="white"/>
<path d="M87.5775 28.3361C87.8002 28.7376 88.0023 29.1473 88.2049 29.557L88.0555 29.4814C88.6974 29.2941 89.3513 29.2116 90.013 29.1847C90.6733 29.1642 91.3386 29.2152 91.9888 29.3451C92.6413 29.4641 93.2759 29.6828 93.8675 29.9759C94.4682 30.2543 94.9947 30.6667 95.4717 31.1029C94.9003 30.7871 94.3418 30.4772 93.7374 30.2721C93.1435 30.0488 92.5313 29.8833 91.9077 29.7803C90.665 29.5666 89.3738 29.5525 88.1182 29.7266L87.9982 29.7434L87.9693 29.6509C87.8314 29.2152 87.6944 28.78 87.5775 28.3361Z" fill="#21325B"/>
<path d="M75.2752 75.0937L75.2569 82.6875L51.4896 82.6707C51.4896 82.6707 54.8039 63.4722 61.3761 56.8683C64.6634 53.5652 68.3685 53.9535 70.6495 56.4267C71.2269 57.0529 76.1399 65.214 76.7631 68.8298C77.3056 72.0199 75.2752 75.0937 75.2752 75.0937Z" fill="#21325B"/>
<path d="M61.943 67.1463C61.5581 67.1463 61.2466 67.4608 61.2466 67.8436C61.2466 68.2264 61.5581 68.5317 61.943 68.5317C62.3279 68.5317 62.6441 68.2264 62.6441 67.8436C62.6441 67.4608 62.3279 67.1463 61.943 67.1463ZM61.943 68.3996C61.6315 68.3996 61.384 68.1489 61.384 67.8436C61.384 67.5337 61.6315 67.283 61.943 67.283C62.2546 67.283 62.5021 67.5337 62.5021 67.8436C62.5021 68.1489 62.2546 68.3996 61.943 68.3996ZM69.4899 55.94C69.105 55.94 68.7934 56.2544 68.7934 56.6372C68.7934 57.0155 69.105 57.3254 69.4899 57.3254C69.8748 57.3254 70.1864 57.0155 70.1864 56.6372C70.1864 56.2544 69.8748 55.94 69.4899 55.94ZM69.4899 57.1932C69.1783 57.1932 68.9309 56.938 68.9309 56.6372C68.9309 56.3273 69.1783 56.0767 69.4899 56.0767C69.7969 56.0767 70.0535 56.3273 70.0535 56.6372C70.0535 56.938 69.7969 57.1932 69.4899 57.1932ZM66.5619 58.8703C66.177 58.8703 65.87 59.1802 65.87 59.563C65.87 59.9413 66.177 60.2557 66.5619 60.2557C66.9468 60.2557 67.263 59.9413 67.263 59.563C67.263 59.1802 66.9468 58.8703 66.5619 58.8703ZM66.5619 60.119C66.2549 60.119 66.0029 59.8683 66.0029 59.563C66.0029 59.2577 66.2549 59.0025 66.5619 59.0025C66.8735 59.0025 67.1255 59.2577 67.1255 59.563C67.1255 59.8683 66.8735 60.119 66.5619 60.119ZM53.6126 77.6782C53.2277 77.6782 52.9161 77.9881 52.9161 78.3709C52.9161 78.7537 53.2277 79.0681 53.6126 79.0681C53.9975 79.0681 54.3137 78.7537 54.3137 78.3709C54.3137 77.9881 53.9975 77.6782 53.6126 77.6782ZM53.6126 78.9314C53.301 78.9314 53.0536 78.6808 53.0536 78.3709C53.0536 78.061 53.301 77.8149 53.6126 77.8149C53.9242 77.8149 54.1762 78.061 54.1762 78.3709C54.1762 78.6808 53.9242 78.9314 53.6126 78.9314ZM60.5088 77.8696C60.1239 77.8696 59.8123 78.1749 59.8123 78.5577C59.8123 78.9405 60.1239 79.255 60.5088 79.255C60.8937 79.255 61.2053 78.9405 61.2053 78.5577C61.2053 78.1749 60.8937 77.8696 60.5088 77.8696ZM60.5088 79.1183C60.1972 79.1183 59.9498 78.8676 59.9498 78.5577C59.9498 78.2524 60.1972 78.0017 60.5088 78.0017C60.8158 78.0017 61.0724 78.2524 61.0724 78.5577C61.0724 78.8676 60.8158 79.1183 60.5088 79.1183ZM54.0571 71.9542C54.0434 71.9952 54.0296 72.0408 54.0159 72.0818C54.2037 72.1684 54.332 72.3598 54.332 72.5831C54.332 72.8885 54.0846 73.1437 53.773 73.1437C53.7547 73.1437 53.7363 73.1437 53.718 73.1346H53.7134C53.6997 73.1801 53.6905 73.2212 53.6768 73.2667C53.7089 73.2758 53.7409 73.2758 53.773 73.2758C54.1579 73.2758 54.4695 72.966 54.4695 72.5831C54.4695 72.3006 54.3 72.0591 54.0571 71.9542ZM57.9886 69.9901C57.6083 69.9901 57.2967 70.2999 57.2967 70.6828C57.2967 71.0656 57.6083 71.3755 57.9886 71.3755C58.3735 71.3755 58.6897 71.0656 58.6897 70.6828C58.6897 70.2999 58.3735 69.9901 57.9886 69.9901ZM57.9886 71.2433C57.6862 71.2433 57.4342 70.9881 57.4342 70.6828C57.4342 70.3729 57.6862 70.1268 57.9886 70.1268C58.3002 70.1268 58.5522 70.3729 58.5522 70.6828C58.5522 70.9881 58.3002 71.2433 57.9886 71.2433ZM73.4856 75.0896C73.1007 75.0896 72.7845 75.4041 72.7845 75.7869C72.7845 76.1651 73.1007 76.475 73.4856 76.475C73.8659 76.475 74.1775 76.1651 74.1775 75.7869C74.1775 75.4041 73.8659 75.0896 73.4856 75.0896ZM73.4856 76.3383C73.174 76.3383 72.922 76.0877 72.922 75.7869C72.922 75.477 73.174 75.2264 73.4856 75.2264C73.788 75.2264 74.0446 75.477 74.0446 75.7869C74.0446 76.0877 73.788 76.3383 73.4856 76.3383ZM73.4856 80.4991C73.1007 80.4991 72.7845 80.8136 72.7845 81.1964C72.7845 81.5746 73.1007 81.8845 73.4856 81.8845C73.8659 81.8845 74.1775 81.5746 74.1775 81.1964C74.1775 80.8136 73.8659 80.4991 73.4856 80.4991ZM73.4856 81.7524C73.174 81.7524 72.922 81.4972 72.922 81.1964C72.922 80.8865 73.174 80.6358 73.4856 80.6358C73.788 80.6358 74.0446 80.8865 74.0446 81.1964C74.0446 81.4972 73.788 81.7524 73.4856 81.7524ZM69.5999 72.6925C69.215 72.6925 68.9034 73.007 68.9034 73.3898C68.9034 73.768 69.215 74.0825 69.5999 74.0825C69.9802 74.0825 70.2964 73.768 70.2964 73.3898C70.2964 73.007 69.9802 72.6925 69.5999 72.6925ZM69.5999 73.9458C69.2929 73.9458 69.0363 73.6951 69.0363 73.3898C69.0363 73.0799 69.2929 72.8292 69.5999 72.8292C69.9069 72.8292 70.1589 73.0799 70.1589 73.3898C70.1589 73.6951 69.9069 73.9458 69.5999 73.9458ZM72.8486 59.9732C72.8441 59.9732 72.8441 59.9732 72.8441 59.9732C72.8074 59.9777 72.7708 59.9823 72.7341 59.9823C72.4271 59.9823 72.1751 59.7362 72.1751 59.4263C72.1751 59.285 72.2301 59.1529 72.3171 59.0571C72.2942 59.0116 72.2667 58.9706 72.2438 58.9295C72.1155 59.0571 72.0376 59.2349 72.0376 59.4263C72.0376 59.8137 72.3492 60.119 72.7341 60.119C72.7982 60.119 72.8578 60.1099 72.9128 60.0916C72.8899 60.0506 72.867 60.0096 72.8486 59.9732ZM69.8427 61.8052C69.4578 61.8052 69.1462 62.1151 69.1462 62.4979C69.1462 62.8807 69.4578 63.1906 69.8427 63.1906C70.2276 63.1906 70.5392 62.8807 70.5392 62.4979C70.5392 62.1151 70.2276 61.8052 69.8427 61.8052ZM69.8427 63.0539C69.5357 63.0539 69.2837 62.8078 69.2837 62.4979C69.2837 62.1926 69.5357 61.9373 69.8427 61.9373C70.1543 61.9373 70.4018 62.1926 70.4018 62.4979C70.4018 62.8078 70.1543 63.0539 69.8427 63.0539ZM73.4856 64.6991C73.1007 64.6991 72.7845 65.0089 72.7845 65.3918C72.7845 65.7746 73.1007 66.0845 73.4856 66.0845C73.8705 66.0845 74.1775 65.7746 74.1775 65.3918C74.1775 65.0089 73.8705 64.6991 73.4856 64.6991ZM73.4856 65.9478C73.174 65.9478 72.922 65.7017 72.922 65.3918C72.922 65.0864 73.174 64.8312 73.4856 64.8312C73.7926 64.8312 74.0446 65.0864 74.0446 65.3918C74.0446 65.7017 73.7926 65.9478 73.4856 65.9478ZM66.0074 64.6991C65.6225 64.6991 65.3064 65.0089 65.3064 65.3918C65.3064 65.7746 65.6225 66.0845 66.0074 66.0845C66.3923 66.0845 66.7039 65.7746 66.7039 65.3918C66.7039 65.0089 66.3923 64.6991 66.0074 64.6991ZM66.0074 65.9478C65.6959 65.9478 65.4438 65.7017 65.4438 65.3918C65.4438 65.0864 65.6959 64.8312 66.0074 64.8312C66.319 64.8312 66.5665 65.0864 66.5665 65.3918C66.5665 65.7017 66.319 65.9478 66.0074 65.9478ZM63.1298 55.94C62.7449 55.94 62.4333 56.2544 62.4333 56.6372C62.4333 57.0155 62.7449 57.3254 63.1298 57.3254C63.5147 57.3254 63.8309 57.0155 63.8309 56.6372C63.8309 56.2544 63.5147 55.94 63.1298 55.94ZM63.1298 57.1932C62.8228 57.1932 62.5708 56.938 62.5708 56.6372C62.5708 56.3273 62.8228 56.0767 63.1298 56.0767C63.4414 56.0767 63.6889 56.3273 63.6889 56.6372C63.6889 56.938 63.4414 57.1932 63.1298 57.1932ZM62.5708 61.4133C62.1859 61.4133 61.8743 61.7277 61.8743 62.1105C61.8743 62.4888 62.1859 62.7987 62.5708 62.7987C62.9557 62.7987 63.2719 62.4888 63.2719 62.1105C63.2719 61.7277 62.9557 61.4133 62.5708 61.4133ZM62.5708 62.6665C62.2638 62.6665 62.0118 62.4113 62.0118 62.1105C62.0118 61.8006 62.2638 61.55 62.5708 61.55C62.8824 61.55 63.1298 61.8006 63.1298 62.1105C63.1298 62.4113 62.8824 62.6665 62.5708 62.6665ZM69.8198 77.6827C69.4349 77.6827 69.1279 77.9926 69.1279 78.3754C69.1279 78.7537 69.4349 79.0681 69.8198 79.0681C70.2047 79.0681 70.5209 78.7537 70.5209 78.3754C70.5209 77.9926 70.2047 77.6827 69.8198 77.6827ZM69.8198 78.9314C69.5128 78.9314 69.2608 78.6808 69.2608 78.3754C69.2608 78.0701 69.5128 77.8149 69.8198 77.8149C70.1314 77.8149 70.3834 78.0701 70.3834 78.3754C70.3834 78.6808 70.1314 78.9314 69.8198 78.9314ZM61.943 72.6925C61.5581 72.6925 61.2466 73.007 61.2466 73.3898C61.2466 73.768 61.5581 74.0825 61.943 74.0825C62.3279 74.0825 62.6441 73.768 62.6441 73.3898C62.6441 73.007 62.3279 72.6925 61.943 72.6925ZM61.943 73.9458C61.6315 73.9458 61.384 73.6951 61.384 73.3898C61.384 73.0799 61.6315 72.8292 61.943 72.8292C62.2546 72.8292 62.5021 73.0799 62.5021 73.3898C62.5021 73.6951 62.2546 73.9458 61.943 73.9458ZM65.8425 70.1496C65.4576 70.1496 65.1414 70.464 65.1414 70.8423C65.1414 71.2251 65.4576 71.535 65.8425 71.535C66.2274 71.535 66.5344 71.2251 66.5344 70.8423C66.5344 70.464 66.2274 70.1496 65.8425 70.1496ZM65.8425 71.3982C65.5309 71.3982 65.2789 71.1476 65.2789 70.8423C65.2789 70.5369 65.5309 70.2863 65.8425 70.2863C66.1495 70.2863 66.3969 70.5369 66.3969 70.8423C66.3969 71.1476 66.1495 71.3982 65.8425 71.3982ZM73.6185 69.9901C73.2336 69.9901 72.922 70.3045 72.922 70.6873C72.922 71.0701 73.2336 71.3755 73.6185 71.3755C74.0034 71.3755 74.315 71.0701 74.315 70.6873C74.315 70.3045 74.0034 69.9901 73.6185 69.9901ZM73.6185 71.2433C73.3115 71.2433 73.0549 70.9926 73.0549 70.6873C73.0549 70.3774 73.3115 70.1268 73.6185 70.1268C73.9301 70.1268 74.1775 70.3774 74.1775 70.6873C74.1775 70.9926 73.9301 71.2433 73.6185 71.2433ZM69.4945 67.1463C69.1096 67.1463 68.7934 67.4608 68.7934 67.8436C68.7934 68.2264 69.1096 68.5317 69.4945 68.5317C69.8794 68.5317 70.1864 68.2264 70.1864 67.8436C70.1864 67.4608 69.8794 67.1463 69.4945 67.1463ZM69.4945 68.3996C69.1829 68.3996 68.9309 68.1489 68.9309 67.8436C68.9309 67.5337 69.1829 67.283 69.4945 67.283C69.8015 67.283 70.0535 67.5337 70.0535 67.8436C70.0535 68.1489 69.8015 68.3996 69.4945 68.3996ZM58.5568 64.0063C58.1719 64.0063 57.8557 64.3162 57.8557 64.6991C57.8557 65.0819 58.1719 65.3918 58.5568 65.3918C58.9371 65.3918 59.2533 65.0819 59.2533 64.6991C59.2533 64.3162 58.9371 64.0063 58.5568 64.0063ZM58.5568 65.255C58.2452 65.255 57.9932 65.0089 57.9932 64.6991C57.9932 64.3937 58.2452 64.1385 58.5568 64.1385C58.8592 64.1385 59.1158 64.3937 59.1158 64.6991C59.1158 65.0089 58.8592 65.255 58.5568 65.255ZM59.7803 58.7974C59.7436 58.8475 59.7069 58.8976 59.6703 58.9478C59.6749 58.966 59.6749 58.9842 59.6749 59.0025C59.6749 59.2486 59.5099 59.4627 59.2854 59.5311C59.2487 59.5812 59.2166 59.6359 59.1846 59.6861C59.5374 59.6542 59.8123 59.3625 59.8123 59.0025C59.8123 58.9295 59.8032 58.8612 59.7803 58.7974ZM64.839 80.4991C64.4541 80.4991 64.1425 80.809 64.1425 81.1918C64.1425 81.5746 64.4541 81.8845 64.839 81.8845C65.2239 81.8845 65.5355 81.5746 65.5355 81.1918C65.5355 80.809 65.2239 80.4991 64.839 80.4991ZM64.839 81.7524C64.532 81.7524 64.2754 81.4972 64.2754 81.1918C64.2754 80.8819 64.532 80.6358 64.839 80.6358C65.1506 80.6358 65.398 80.8819 65.398 81.1918C65.398 81.4972 65.1506 81.7524 64.839 81.7524ZM65.3476 75.24C64.9627 75.24 64.6465 75.5454 64.6465 75.9282C64.6465 76.311 64.9627 76.6254 65.3476 76.6254C65.7325 76.6254 66.0441 76.311 66.0441 75.9282C66.0441 75.5454 65.7325 75.24 65.3476 75.24ZM65.3476 76.4887C65.036 76.4887 64.784 76.2381 64.784 75.9282C64.784 75.6228 65.036 75.3722 65.3476 75.3722C65.6592 75.3722 65.9066 75.6228 65.9066 75.9282C65.9066 76.2381 65.6592 76.4887 65.3476 76.4887ZM56.6644 80.9229C56.284 80.9229 55.9679 81.2283 55.9679 81.6111C55.9679 81.9939 56.284 82.3084 56.6644 82.3084C57.0493 82.3084 57.3654 81.9939 57.3654 81.6111C57.3654 81.2283 57.0493 80.9229 56.6644 80.9229ZM56.6644 82.1716C56.3574 82.1716 56.1053 81.921 56.1053 81.6111C56.1053 81.3058 56.3574 81.0551 56.6644 81.0551C56.976 81.0551 57.228 81.3058 57.228 81.6111C57.228 81.921 56.976 82.1716 56.6644 82.1716ZM57.3609 74.9529C56.9805 74.9529 56.6644 75.2628 56.6644 75.6456C56.6644 76.0284 56.9805 76.3383 57.3609 76.3383C57.7458 76.3383 58.0619 76.0284 58.0619 75.6456C58.0619 75.2628 57.7458 74.9529 57.3609 74.9529ZM57.3609 76.2062C57.0584 76.2062 56.8018 75.951 56.8018 75.6456C56.8018 75.3357 57.0584 75.0896 57.3609 75.0896C57.6724 75.0896 57.9245 75.3357 57.9245 75.6456C57.9245 75.951 57.6724 76.2062 57.3609 76.2062Z" fill="white"/>
<path d="M66.091 74.1454C67.4849 74.0378 68.8926 73.9763 70.2892 74.0752C70.9843 74.1244 71.6721 74.2051 72.3617 74.3008C72.7054 74.3486 73.0486 74.3846 73.3941 74.4188C73.7483 74.4539 74.1263 74.4785 74.4801 74.4261C74.5122 74.4216 74.5195 74.4685 74.4883 74.4753C74.1479 74.5464 73.8216 74.6139 73.4734 74.6394C73.1425 74.664 72.8071 74.6531 72.4763 74.633C71.7711 74.5897 71.0682 74.5141 70.3634 74.4635C68.9416 74.3618 67.5207 74.2602 66.0947 74.2611C66.0287 74.2607 66.025 74.1504 66.091 74.1454Z" fill="#21325B"/>
<path d="M62.9179 75.9683C64.0222 75.6507 65.1595 75.3809 66.2936 75.1899C66.8641 75.0938 67.436 75.0313 68.0124 74.9835C68.2878 74.9607 68.5632 74.9429 68.839 74.9283C69.1424 74.9124 69.4485 74.9365 69.7514 74.9165C69.783 74.9142 69.7917 74.9625 69.7596 74.9657C69.4746 74.9935 69.1928 75.0682 68.9096 75.1129C68.6251 75.1575 68.3405 75.1995 68.0559 75.2441C67.4864 75.333 66.9182 75.4278 66.3472 75.5112C65.2049 75.6784 64.0694 75.8557 62.934 76.0622C62.8717 76.0722 62.8607 75.9847 62.9179 75.9683Z" fill="#21325B"/>
<path d="M59.4071 57.5742C56.5712 59.2795 41.7826 68.966 40.1161 73.9425C37.6371 81.3431 39.3582 90.4034 39.8948 94.4006C40.1285 96.1424 52.2616 95.601 52.2905 93.722C52.3524 89.6984 51.5024 79.3552 51.9074 78.009C52.3121 76.6632 59.705 66.6277 63.5187 61.7883C68.6361 55.2951 66.2951 53.4325 59.4071 57.5742Z" fill="white"/>
<path d="M51.7481 92.9245C51.7481 92.9245 54.3214 97.0274 55.0023 99.5991C55.9142 103.043 55.2759 106.389 54.9235 107.776C54.1876 110.67 50.3963 117.161 48.3261 116.401C46.452 115.713 50.6644 109.273 50.6644 109.273C50.6644 109.273 47.4591 116.544 45.3559 115.303C43.2527 114.063 48.5699 106.863 48.5699 106.863C48.5699 106.863 45.108 114.261 43.1427 112.64C41.6576 111.415 46.1042 104.625 46.1042 104.625C46.1042 104.625 43.0845 110.963 41.5023 109.768C39.7542 108.448 43.463 101.925 43.463 101.925C39.9553 98.216 39.5365 94.3687 40.0924 92.5782C40.2564 92.0477 51.7481 92.9245 51.7481 92.9245Z" fill="white"/>
<path d="M51.9371 106.828C51.5916 107.696 51.2479 108.576 50.8259 109.41C50.4043 110.244 49.9525 111.065 49.4549 111.856C48.2333 113.797 47.1634 114.823 47.2225 114.752C48.6214 113.085 50.178 110.122 50.6 109.287C51.0211 108.455 51.4839 107.644 51.9059 106.811C51.916 106.79 51.9453 106.808 51.9371 106.828Z" fill="#21325B"/>
<path d="M48.9351 105.259C48.4457 106.347 48.0004 107.447 47.4624 108.514C46.9272 109.577 46.326 110.538 45.7189 111.561C45.6721 111.64 45.6446 111.589 45.6886 111.508C46.2545 110.462 46.6963 109.451 47.2498 108.398C47.801 107.349 48.3976 106.313 48.9104 105.245C48.9177 105.229 48.9425 105.242 48.9351 105.259Z" fill="#21325B"/>
<path d="M46.6037 103.451C45.9416 105.154 44.9646 106.732 43.9689 108.258C43.9194 108.334 43.8915 108.264 43.9378 108.184C44.8441 106.602 45.5663 105.368 46.5441 103.428C46.5597 103.398 46.6179 103.415 46.6037 103.451Z" fill="#21325B"/>
<path d="M47.0858 65.1302L58.2333 68.9104C58.2333 68.9104 61.8679 64.9051 65.7398 59.5721C69.6118 54.2392 65.1666 53.9407 60.8818 56.1355C53.488 59.9226 47.0858 65.1302 47.0858 65.1302Z" fill="#21325B"/>
<path d="M54.3807 66.4354C53.9958 66.4354 53.6796 66.7498 53.6796 67.1326C53.6796 67.2192 53.6979 67.3058 53.73 67.3833L53.9179 67.4471C53.8537 67.356 53.8171 67.2511 53.8171 67.1326C53.8171 66.8228 54.0691 66.5721 54.3807 66.5721C54.6831 66.5721 54.9397 66.8228 54.9397 67.1326C54.9397 67.3833 54.7747 67.5884 54.5456 67.6613L54.7335 67.7251C54.9397 67.6066 55.0772 67.3879 55.0772 67.1326C55.0772 66.7498 54.761 66.4354 54.3807 66.4354ZM54.9351 60.8527C54.5502 60.8527 54.2432 61.1672 54.2432 61.55C54.2432 61.9282 54.5502 62.2427 54.9351 62.2427C55.32 62.2427 55.6362 61.9282 55.6362 61.55C55.6362 61.1672 55.32 60.8527 54.9351 60.8527ZM54.9351 62.106C54.6281 62.106 54.3761 61.8553 54.3761 61.55C54.3761 61.2447 54.6281 60.9894 54.9351 60.9894C55.2467 60.9894 55.4987 61.2447 55.4987 61.55C55.4987 61.8553 55.2467 62.106 54.9351 62.106ZM65.9095 59.3306C65.9782 59.2349 66.0424 59.1392 66.1019 59.048C66.0149 59.121 65.9461 59.2167 65.9095 59.3306ZM63.1281 55.94C62.7432 55.94 62.4316 56.2544 62.4316 56.6373C62.4316 57.0155 62.7432 57.3254 63.1281 57.3254C63.513 57.3254 63.8292 57.0155 63.8292 56.6373C63.8292 56.2544 63.513 55.94 63.1281 55.94ZM63.1281 57.1932C62.8211 57.1932 62.5691 56.938 62.5691 56.6373C62.5691 56.3274 62.8211 56.0767 63.1281 56.0767C63.4397 56.0767 63.6871 56.3274 63.6871 56.6373C63.6871 56.938 63.4397 57.1932 63.1281 57.1932ZM62.5691 61.4133C62.1842 61.4133 61.8726 61.7277 61.8726 62.1105C61.8726 62.4888 62.1842 62.7987 62.5691 62.7987C62.954 62.7987 63.2701 62.4888 63.2701 62.1105C63.2701 61.7277 62.954 61.4133 62.5691 61.4133ZM62.5691 62.6665C62.262 62.6665 62.01 62.4113 62.01 62.1105C62.01 61.8006 62.262 61.55 62.5691 61.55C62.8806 61.55 63.1281 61.8006 63.1281 62.1105C63.1281 62.4113 62.8806 62.6665 62.5691 62.6665ZM51.2969 63.4458C50.912 63.4458 50.5958 63.7603 50.5958 64.1431C50.5958 64.5259 50.912 64.8312 51.2969 64.8312C51.6772 64.8312 51.9888 64.5259 51.9888 64.1431C51.9888 63.7603 51.6772 63.4458 51.2969 63.4458ZM51.2969 64.6991C50.9853 64.6991 50.7333 64.4484 50.7333 64.1431C50.7333 63.8332 50.9853 63.5825 51.2969 63.5825C51.5993 63.5825 51.8559 63.8332 51.8559 64.1431C51.8559 64.4484 51.5993 64.6991 51.2969 64.6991ZM58.5551 64.0064C58.1702 64.0064 57.854 64.3163 57.854 64.6991C57.854 65.0819 58.1702 65.3918 58.5551 65.3918C58.9354 65.3918 59.2515 65.0819 59.2515 64.6991C59.2515 64.3163 58.9354 64.0064 58.5551 64.0064ZM58.5551 65.2551C58.2435 65.2551 57.9914 65.009 57.9914 64.6991C57.9914 64.3937 58.2435 64.1385 58.5551 64.1385C58.8575 64.1385 59.1141 64.3937 59.1141 64.6991C59.1141 65.009 58.8575 65.2551 58.5551 65.2551ZM59.1095 58.3098C58.7246 58.3098 58.4176 58.6197 58.4176 59.0025C58.4176 59.3853 58.7246 59.6952 59.1095 59.6952C59.4944 59.6952 59.8106 59.3853 59.8106 59.0025C59.8106 58.6197 59.4944 58.3098 59.1095 58.3098ZM59.1095 59.563C58.8025 59.563 58.5505 59.3078 58.5505 59.0025C58.5505 58.6926 58.8025 58.4465 59.1095 58.4465C59.4211 58.4465 59.6731 58.6926 59.6731 59.0025C59.6731 59.3078 59.4211 59.563 59.1095 59.563Z" fill="white"/>
<path d="M58.9786 66.8775C54.7822 65.8115 50.6102 64.0615 49.8546 63.8086C49.8188 63.7967 49.8495 63.7407 49.8848 63.7544C50.6083 64.041 55.6597 65.5203 59.0116 66.8178C59.0505 66.8328 59.0189 66.8879 58.9786 66.8775Z" fill="#21325B"/>
<path d="M63.8413 63.2002C63.5778 63.4107 63.3189 63.6272 63.055 63.8368C62.9963 63.8833 62.94 63.9325 62.8831 63.9808C63.5013 63.1728 64.0993 62.348 64.6752 61.5126C64.6885 61.493 64.661 61.4734 64.6459 61.4908C63.5815 62.7317 62.506 63.9649 61.454 65.2163C60.4207 66.4454 59.3081 67.6239 58.3436 68.9082C58.1717 68.8562 57.9995 68.8043 57.8276 68.7523C57.7777 68.7373 57.7506 68.8043 57.7978 68.8275C57.9797 68.9177 58.1617 69.008 58.3436 69.0982C58.3706 69.1119 58.4128 69.105 58.4348 69.0845C59.6316 67.9944 60.664 66.7138 61.6973 65.4729C61.9827 65.1302 62.2623 64.782 62.5377 64.4302C62.5587 64.4129 62.5807 64.3951 62.6 64.3796C62.6898 64.3067 62.7791 64.2333 62.8685 64.159C63.2176 63.8692 63.5512 63.5584 63.8688 63.2344C63.8889 63.2152 63.8647 63.182 63.8413 63.2002Z" fill="#21325B"/>
<path d="M65.2484 56.485C65.4395 56.9216 68.1723 59.4837 70.2499 59.0047C70.9262 58.8475 70.2288 55.1374 70.2288 55.1374L70.2402 54.8517L70.3979 50.8541L65.3295 48.7837L64.6037 48.5198C64.6037 48.5198 64.633 49.6163 64.6834 50.9817C64.6852 51.045 64.6875 51.1084 64.6903 51.1763C64.6912 51.2537 64.6907 51.3266 64.6953 51.3987C64.6999 51.6028 64.7059 51.8111 64.7164 52.0184C64.7237 52.1761 64.7297 52.3297 64.7434 52.4951C64.7526 52.6615 64.7654 52.8228 64.7746 52.9891C64.9015 54.627 65.17 56.2991 65.2484 56.485Z" fill="white"/>
<path d="M64.6834 50.9817C66.3518 53.8372 69.0356 54.637 70.2402 54.8517L70.3979 50.8541L65.3295 48.7837L64.6037 48.5198C64.6037 48.5198 64.633 49.6163 64.6834 50.9817Z" fill="#21325B"/>
<path d="M75.1869 44.3568C76.8072 51.1913 72.8738 52.9281 71.392 53.274C70.0466 53.588 65.425 54.4867 63.1032 47.8554C60.7819 41.2241 63.4648 38.3143 66.5037 37.4343C69.5435 36.5542 73.5671 37.5222 75.1869 44.3568Z" fill="white"/>
<path d="M73.8847 42.9007C73.7193 42.9198 73.563 42.9103 73.3972 42.9126C73.2102 42.9153 73.0613 42.9362 72.8977 42.8301C72.8097 42.7736 72.7799 42.6232 72.8276 42.5334C72.938 42.3238 73.1667 42.2641 73.3917 42.2517C73.6359 42.2385 73.8279 42.2905 74.0249 42.4336C74.216 42.5726 74.1033 42.8752 73.8847 42.9007Z" fill="#21325B"/>
<path d="M69.3786 43.9885C69.5353 43.932 69.6705 43.8536 69.8199 43.7821C69.9885 43.701 70.131 43.6536 70.2295 43.4859C70.2822 43.3961 70.2414 43.2484 70.1585 43.1892C69.9651 43.0511 69.7342 43.0994 69.5275 43.1887C69.303 43.2858 69.155 43.418 69.0432 43.6335C68.9341 43.8422 69.1715 44.0628 69.3786 43.9885Z" fill="#21325B"/>
<path d="M69.789 45.7162C69.7624 45.77 69.7303 45.8179 69.6914 45.8552C69.6291 45.9222 69.5452 45.9596 69.4471 45.9568C69.1612 45.95 69.0164 45.667 68.9756 45.3813C68.972 45.3608 68.982 45.3471 68.9963 45.3612C69.1259 45.4979 69.2753 45.6383 69.4371 45.5996C69.5466 45.5745 69.6263 45.4692 69.706 45.3781C69.7216 45.4961 69.75 45.6091 69.789 45.7162Z" fill="#21325B"/>
<path d="M69.6652 45.6529C69.6583 45.5307 69.6803 45.3986 69.7463 45.2719C69.8123 45.1456 69.9498 45.055 70.0886 45.0212C70.232 44.9866 70.402 45.039 70.5037 45.1333C70.6055 45.2277 70.6747 45.3375 70.7182 45.4524C70.7466 45.5253 70.7658 45.5996 70.7828 45.6747C70.8162 45.8343 70.8217 45.9969 70.78 46.1519C70.7622 46.0343 70.7306 45.9217 70.6889 45.816C70.6499 45.7144 70.6055 45.621 70.5551 45.5312C70.4474 45.3457 70.2939 45.2044 70.1353 45.2491C69.9653 45.2819 69.8705 45.4446 69.848 45.6602C69.8247 45.8712 69.8402 46.0981 69.8609 46.3287C69.7477 46.1255 69.6748 45.8976 69.6652 45.6529Z" fill="#21325B"/>
<path d="M74.2609 44.6512C74.3118 44.6835 74.3645 44.7072 74.4172 44.7186C74.5056 44.7432 74.5968 44.7314 74.6788 44.6785C74.9189 44.5236 74.8933 44.2073 74.7773 43.9425C74.7696 43.9229 74.754 43.9165 74.7494 43.9361C74.7109 44.1203 74.6573 44.3176 74.4992 44.3691C74.3924 44.4046 74.2692 44.3563 74.1532 44.3203C74.2027 44.4283 74.2385 44.54 74.2609 44.6512Z" fill="#21325B"/>
<path d="M74.3335 44.5331C74.2753 44.4256 74.1869 44.3244 74.0641 44.2511C73.9413 44.1777 73.7768 44.1722 73.6407 44.2155C73.5 44.2606 73.3832 44.3942 73.346 44.5272C73.3089 44.6603 73.308 44.7902 73.3309 44.911C73.3451 44.988 73.368 45.0613 73.3928 45.1338C73.4482 45.2874 73.5293 45.4287 73.6462 45.5389C73.5999 45.4296 73.5674 45.317 73.5477 45.2054C73.527 45.0987 73.516 44.9957 73.5119 44.8927C73.506 44.6785 73.5628 44.4785 73.7209 44.4338C73.8831 44.3732 74.0494 44.4625 74.1818 44.6343C74.3129 44.802 74.4192 45.0035 74.5223 45.2108C74.5122 44.9789 74.4545 44.7464 74.3335 44.5331Z" fill="#21325B"/>
<path d="M71.4854 49.2235C71.6183 49.3142 71.7576 49.4468 71.9321 49.4317C72.0994 49.4171 72.2795 49.31 72.4206 49.2257C72.4343 49.2175 72.4527 49.2307 72.4453 49.2462C72.3537 49.4481 72.115 49.6058 71.8886 49.6054C71.6677 49.6049 71.5294 49.439 71.4437 49.2526C71.4313 49.2266 71.4661 49.2107 71.4854 49.2235Z" fill="#21325B"/>
<path d="M73.0503 47.0879C73.0503 47.0879 73.3097 47.7611 73.3862 48.0892C73.3931 48.1202 73.317 48.153 73.2061 48.1853C73.2011 48.1881 73.1988 48.1913 73.1933 48.189C72.632 48.4141 71.9987 48.3494 71.5341 47.9584C71.5038 47.9315 71.5377 47.8882 71.5726 47.9019C72.0816 48.1188 72.5816 48.0896 73.0998 47.9789C73.1016 47.8827 72.6173 46.8405 72.6686 46.8245C72.8455 46.7676 73.2295 46.8077 73.4572 46.8204C72.9582 45.4027 72.2351 44.0756 71.7595 42.6565C71.7435 42.6054 71.8145 42.5726 71.8406 42.6154C72.6979 43.9525 73.3078 45.5717 73.8609 47.0228C73.9319 47.2028 73.1956 47.113 73.0503 47.0879Z" fill="#21325B"/>
<path d="M73.1482 47.9643C73.1482 47.9643 72.9828 48.4929 72.6075 48.7933C72.4696 48.9045 72.3074 48.9856 72.1127 49.0002C71.7131 49.0316 71.5866 48.7007 71.5536 48.3918C71.5257 48.1379 71.5642 47.8973 71.5642 47.8973C71.5642 47.8973 72.273 48.209 73.1482 47.9643Z" fill="#21325B"/>
<path d="M72.6075 48.7933C72.4696 48.9045 72.3074 48.9856 72.1127 49.0002C71.7131 49.0316 71.5866 48.7007 71.5536 48.3918C71.9596 48.2956 72.4407 48.4255 72.6075 48.7933Z" fill="white"/>
<path d="M70.5769 38.6725C70.5769 38.6725 70.8614 39.737 70.4935 40.5072C69.7374 42.0904 67.8198 41.6789 67.1659 42.306C66.5532 42.8939 66.7704 44.1079 66.216 44.6958C65.448 45.5097 64.4001 45.1976 64.2741 45.7444C64.1485 46.2913 63.7874 48.0331 63.0873 48.2559C62.3871 48.4792 59.1438 36.9111 68.3041 37.2529C68.3041 37.2529 69.5601 36.7397 71.5121 37.7113C73.6666 38.7841 74.611 42.301 74.611 42.301C74.611 42.301 74.5652 42.2531 74.2513 41.9792C73.8082 41.5928 73.6368 41.2345 73.312 40.9839C72.802 40.5906 72.5229 40.7405 71.9932 40.3577C71.1858 39.7749 70.5769 38.6725 70.5769 38.6725Z" fill="#21325B"/>
<path d="M70.4357 38.1693C70.5787 38.6232 70.6731 39.0922 70.7065 39.5616C70.7441 40.026 70.7208 40.5131 70.5146 40.916C70.3061 41.3079 69.8923 41.5754 69.4652 41.7313C69.0299 41.8917 68.5497 41.9382 68.0814 42.126C67.8523 42.2276 67.6255 42.3643 67.4683 42.5862C67.3148 42.8045 67.253 43.0538 67.2007 43.2867C67.1045 43.7538 67.0069 44.2146 66.6958 44.5486C66.3901 44.8827 65.937 45.0841 65.4691 45.064C65.0077 45.0659 64.4972 44.9383 64.0477 45.141C64.5128 44.9752 64.9838 45.1379 65.4659 45.1734C65.9585 45.2176 66.4685 45.0235 66.8218 44.6671C67.1961 44.3071 67.2983 43.7816 67.401 43.3318C67.4546 43.1039 67.5183 42.8811 67.6443 42.7097C67.7652 42.5407 67.9632 42.419 68.1694 42.3324C68.5882 42.1551 69.0748 42.0977 69.5363 41.9227C69.7672 41.8361 69.9913 41.719 70.1883 41.5654C70.3821 41.4164 70.5718 41.2268 70.6708 40.9917C70.8802 40.5282 70.8761 40.0223 70.817 39.5488C70.746 39.0735 70.614 38.6114 70.4357 38.1693Z" fill="#21325B"/>
<path d="M70.6131 38.5836C70.702 39.0179 70.8555 39.4376 71.0599 39.8382C71.2606 40.2383 71.5713 40.6102 71.9814 40.8399C72.1862 40.9575 72.4194 41.0172 72.6151 41.0828C72.8025 41.1484 73.0014 41.2646 73.1104 41.4114C73.2296 41.5791 73.3427 41.7905 73.51 41.9478C73.6777 42.105 73.8798 42.2189 74.0919 42.2836C73.9004 42.1724 73.7208 42.0435 73.5915 41.873C73.4504 41.7103 73.3711 41.518 73.2552 41.3148C73.1177 41.0915 72.9065 40.9816 72.6898 40.8855C72.4703 40.8025 72.27 40.7524 72.0913 40.6453C71.7266 40.4379 71.442 40.1171 71.2175 39.748C70.9866 39.382 70.7969 38.9855 70.6131 38.5836Z" fill="#21325B"/>
<path d="M70.1234 48.2108C69.1877 48.3416 68.2438 47.8326 67.8689 46.9238C67.4263 45.8492 67.945 44.617 69.025 44.1763C70.1055 43.7356 71.3445 44.2515 71.7872 45.3261C72.2298 46.4002 71.7111 47.633 70.6311 48.0732C70.4643 48.1415 70.2943 48.1871 70.1234 48.2108ZM69.5726 44.3184C69.4246 44.339 69.277 44.3786 69.1327 44.4369C68.197 44.8184 67.7475 45.8862 68.131 46.8172C68.515 47.7473 69.5891 48.1958 70.5239 47.8134C71.4595 47.4315 71.909 46.3642 71.5255 45.4332C71.2011 44.6461 70.3836 44.205 69.5726 44.3184Z" fill="#21325B"/>
<path d="M74.7165 46.9767C73.9096 47.0501 73.1022 46.2949 72.874 45.2199C72.7585 44.6776 72.8057 44.133 73.006 43.6873C73.2126 43.2261 73.5586 42.9235 73.9792 42.8355C74.4012 42.7462 74.8388 42.8847 75.2155 43.2233C75.5798 43.5505 75.8437 44.0295 75.9587 44.5718C76.1997 45.708 75.7039 46.7776 74.854 46.9562C74.8081 46.9653 74.7628 46.9721 74.7165 46.9767ZM74.1437 43.0948C74.108 43.098 74.0727 43.103 74.0374 43.1108C73.7079 43.18 73.4335 43.4252 73.2639 43.8021C73.0884 44.194 73.0477 44.6767 73.1507 45.1615C73.3602 46.1459 74.0951 46.8286 74.7953 46.6805C75.4932 46.5342 75.8904 45.6141 75.6819 44.6302C75.5788 44.1453 75.3456 43.7201 75.0253 43.4321C74.7508 43.1851 74.4416 43.0675 74.1437 43.0948Z" fill="#21325B"/>
<path d="M71.7829 45.5799L71.552 45.4172C71.7944 45.0768 72.4203 44.5404 73.0609 44.9423L72.9097 45.1802C72.3364 44.8197 71.8049 45.5494 71.7829 45.5799Z" fill="#21325B"/>
<path d="M62.7946 48.4856L62.5183 48.4241C62.5476 48.296 62.8175 47.1649 63.4026 46.9065C63.9502 46.6668 67.7108 46.0507 67.8707 46.0252L67.9165 46.3027C66.8383 46.4781 63.9401 46.9772 63.5176 47.164C63.1314 47.3345 62.8647 48.1757 62.7946 48.4856Z" fill="#21325B"/>
<path d="M64.5575 47.4339C64.5575 47.4339 62.7145 45.4865 61.8045 46.171C60.8945 46.8555 62.5023 49.8328 63.7272 50.0944C64.952 50.3555 65.2178 49.2331 65.2178 49.2331L64.5575 47.4339Z" fill="white"/>
<path d="M62.2872 47.0132C62.2684 47.0141 62.2684 47.041 62.2858 47.0451C63.1486 47.2552 63.6875 47.9438 64.1022 48.6789C63.8158 48.4141 63.4621 48.2979 63.1001 48.6434C63.0813 48.6616 63.1065 48.6917 63.1285 48.6835C63.4515 48.5641 63.7008 48.5864 63.9652 48.8197C64.1526 48.9847 64.2965 49.2066 64.4427 49.4076C64.4917 49.4746 64.6172 49.4167 64.5774 49.337C64.5742 49.3311 64.571 49.3251 64.5677 49.3192C64.4372 48.2833 63.4176 46.9553 62.2872 47.0132Z" fill="#21325B"/>
<path d="M138.566 166.506C138.566 166.506 138.562 185.728 138.563 185.742C138.581 189.417 138.532 192.641 138.35 194.306C138.35 194.315 138.351 194.323 138.347 194.333C138.279 194.961 138.192 195.362 138.08 195.47C138.071 195.479 138.067 195.488 138.059 195.493C136.963 196.239 107.429 197.245 106.387 196.935C105.341 196.63 106.151 193.648 107.266 192.7C108.39 191.751 119.519 186.336 119.519 186.336L119.706 167.122L138.566 166.506Z" fill="white"/>
<path d="M138.563 181.795C138.563 181.795 138.562 185.728 138.563 185.742C138.581 189.417 138.532 192.641 138.35 194.306C138.35 194.315 138.351 194.323 138.347 194.333C138.242 194.953 138.147 195.364 138.08 195.47C138.071 195.479 138.067 195.488 138.059 195.493C136.963 196.239 107.429 197.245 106.387 196.935C105.341 196.63 106.151 193.648 107.266 192.7C108.39 191.751 119.519 186.336 119.519 186.336L119.465 182.331L138.563 181.795Z" fill="white"/>
<path d="M106.387 196.935C107.431 197.246 136.961 196.241 138.061 195.492C138.483 195.214 138.587 190.926 138.563 185.742C138.562 185.687 138.561 185.634 138.56 185.579L119.501 186.016L119.519 186.338C119.519 186.338 108.389 191.751 107.267 192.701C106.154 193.648 105.344 196.629 106.387 196.935Z" fill="#21325B"/>
<path d="M106.682 195.785C111.656 195.494 131.744 194.787 136.683 194.876C136.723 194.877 136.724 194.904 136.684 194.907C131.76 195.302 111.666 195.847 106.684 195.866C106.579 195.867 106.577 195.792 106.682 195.785Z" fill="#21325B"/>
<path d="M117.92 186.449C119.866 186.019 122.273 186.236 123.817 187.573C123.877 187.625 123.802 187.709 123.738 187.691C121.784 187.151 119.966 186.823 117.936 186.695C117.793 186.686 117.78 186.48 117.92 186.449Z" fill="#21325B"/>
<path d="M116.534 187.345C118.481 186.915 120.887 187.132 122.431 188.469C122.491 188.521 122.416 188.605 122.352 188.587C120.399 188.047 118.581 187.719 116.551 187.591C116.408 187.581 116.395 187.375 116.534 187.345Z" fill="#21325B"/>
<path d="M115.151 188.24C117.097 187.81 119.503 188.028 121.048 189.365C121.108 189.416 121.033 189.5 120.969 189.483C119.015 188.943 117.197 188.615 115.167 188.486C115.024 188.477 115.011 188.271 115.151 188.24Z" fill="#21325B"/>
<path d="M139.52 152.685L139.516 152.9L139.09 186.551L118.418 186.141L122.663 83.5471H140.122L139.52 152.685Z" fill="white"/>
<path d="M119.282 182.711C122.51 182.683 121.583 182.646 124.81 182.654C126.39 182.658 136.769 182.693 138.242 182.954C138.274 182.96 138.273 183.014 138.241 183.019C136.762 183.244 126.385 183.029 124.806 182.995C121.579 182.925 122.506 182.91 119.281 182.804C119.221 182.803 119.222 182.712 119.282 182.711Z" fill="#21325B"/>
<path d="M135.582 171.301C135.622 168.226 135.674 165.151 135.732 162.077C135.85 155.928 135.96 149.779 136.075 143.63C136.303 131.395 136.485 119.16 136.67 106.924C136.775 100.024 136.771 93.1187 136.95 86.2199C136.95 86.2017 136.978 86.2026 136.978 86.2203C137.093 92.369 137.023 98.5236 137.012 104.673C137.001 110.824 136.976 116.974 136.916 123.124C136.796 135.361 136.625 147.597 136.334 159.831C136.252 163.282 136.168 166.732 136.049 170.181C135.93 173.63 135.851 177.086 135.607 180.528C135.604 180.582 135.524 180.58 135.523 180.526C135.466 177.453 135.542 174.375 135.582 171.301Z" fill="#21325B"/>
<path d="M140.123 83.7553L139.665 136.141L125.667 83.5493H140.118L140.123 83.7553Z" fill="#21325B"/>
<path d="M170.197 156.89C170.197 156.89 180.17 173.01 180.176 173.022C181.796 176.326 183.156 179.252 183.718 180.831C183.722 180.839 183.726 180.846 183.727 180.856C183.939 181.452 184.036 181.851 183.982 181.996C183.978 182.008 183.978 182.018 183.973 182.026C183.311 183.172 157.137 196.815 156.064 196.985C154.988 197.161 154.418 194.125 155.008 192.789C155.607 191.449 163.276 181.77 163.276 181.77L153.472 165.579L170.197 156.89Z" fill="white"/>
<path d="M183.979 181.998C183.979 182.007 183.979 182.017 183.975 182.027C183.31 183.172 157.138 196.815 156.062 196.986C154.987 197.162 154.418 194.125 155.006 192.789C155.608 191.448 163.276 181.77 163.276 181.77L161.525 178.88C165.803 176.612 173.579 172.629 178.407 170.162C179.458 171.859 180.175 173.019 180.175 173.023C181.795 176.327 183.157 179.25 183.716 180.828C183.721 180.838 183.726 180.848 183.726 180.857C183.941 181.451 184.037 181.851 183.979 181.998Z" fill="white"/>
<path d="M156.064 196.985C157.139 196.815 183.311 183.174 183.975 182.025C184.235 181.592 182.459 177.684 180.176 173.022C180.152 172.974 180.127 172.925 180.103 172.877L163.119 181.491L163.276 181.772C163.276 181.772 155.607 191.45 155.01 192.79C154.42 194.123 154.99 197.159 156.064 196.985Z" fill="#21325B"/>
<path d="M155.83 195.822C160.185 193.415 177.978 184.114 182.467 182.063C182.503 182.047 182.516 182.071 182.481 182.091C178.217 184.571 160.349 193.728 155.867 195.894C155.773 195.939 155.738 195.872 155.83 195.822Z" fill="#21325B"/>
<path d="M161.885 182.562C163.451 181.335 165.714 180.493 167.689 181.032C167.765 181.053 167.734 181.16 167.669 181.172C165.674 181.528 163.892 182.017 162.007 182.776C161.874 182.83 161.773 182.65 161.885 182.562Z" fill="#21325B"/>
<path d="M161.028 183.967C162.594 182.739 164.857 181.898 166.831 182.436C166.908 182.457 166.877 182.565 166.811 182.577C164.816 182.933 163.035 183.422 161.149 184.181C161.017 184.235 160.915 184.055 161.028 183.967Z" fill="#21325B"/>
<path d="M160.17 185.371C161.736 184.143 164 183.302 165.974 183.84C166.051 183.861 166.02 183.969 165.954 183.981C163.958 184.337 162.177 184.826 160.292 185.585C160.159 185.639 160.058 185.459 160.17 185.371Z" fill="#21325B"/>
<path d="M124.453 83.5307C124.453 83.5307 124.453 83.5353 124.458 83.5485C124.534 83.9058 125.755 89.5386 127.02 94.3775C127.94 97.9126 128.888 101.019 129.431 101.341C130.046 101.702 133.044 103.024 134.049 103.439C134.049 103.439 140.792 136.914 144.351 147.295C147.636 156.874 161.228 182.477 161.228 182.477L180.948 172.568C180.948 172.568 165.547 146.583 163.928 141.92C161.418 134.693 152.013 99.4028 152.013 99.4028C152.013 99.4028 152.085 88.3546 148.344 83.5307H124.453Z" fill="white"/>
<path d="M161.517 178.653C164.335 177.088 163.504 177.498 166.339 175.963C167.727 175.212 176.849 170.287 178.266 169.813C178.297 169.802 178.323 169.85 178.297 169.87C177.108 170.774 167.902 175.541 166.5 176.264C163.636 177.744 164.442 177.288 161.561 178.736C161.507 178.763 161.464 178.682 161.517 178.653Z" fill="#21325B"/>
<path d="M146.953 96.3298C146.413 96.1922 145.836 96.1484 145.285 96.0614C144.84 95.9912 144.397 95.9132 143.957 95.8171C143.129 95.6353 142.291 95.3605 141.614 94.8359C140.851 94.2453 140.463 93.3493 140.094 92.4885C139.875 91.9771 139.649 91.469 139.42 90.9622C139.309 90.7161 139.197 90.4714 139.082 90.2271C138.949 89.9414 138.764 89.6438 138.666 89.3448C138.652 89.3016 138.582 89.3243 138.599 89.3649C138.686 89.564 138.723 89.791 138.786 90.0002C138.862 90.2467 138.932 90.4942 139.009 90.7403C139.146 91.1791 139.279 91.6198 139.425 92.056C139.686 92.8394 139.919 93.661 140.364 94.3656C141.178 95.6548 142.634 96.1739 144.089 96.3567C144.506 96.4091 144.927 96.4387 145.347 96.4624C145.866 96.492 146.419 96.538 146.937 96.4742C147.016 96.4642 147.039 96.3517 146.953 96.3298Z" fill="#21325B"/>
<path d="M127.836 100.551C129.975 101.283 132.041 102.323 134.016 103.414C134.093 103.456 134.043 103.576 133.959 103.54C131.877 102.651 129.754 101.8 127.724 100.798C127.564 100.719 127.671 100.495 127.836 100.551Z" fill="#21325B"/>
<path d="M127.21 86.368C127.215 86.2965 127.342 86.2805 127.341 86.358C127.324 88.8162 127.482 90.9791 127.69 93.2764C127.787 94.3433 128.65 100.237 130.509 99.8074C130.82 99.7354 130.979 99.4306 131.028 98.9639C131.087 98.4029 130.875 97.7143 130.781 97.156C130.575 95.9224 130.409 94.6842 130.303 93.4377C130.104 91.1108 130.094 88.7843 130.378 86.4647C130.387 86.3886 130.498 86.3945 130.498 86.4715C130.495 89.6926 130.58 92.9073 131.065 96.0974C131.297 97.6304 132.074 99.9387 130.462 100.174C128.819 100.414 127.757 96.5485 127.557 95.4908C126.997 92.54 126.975 89.354 127.21 86.368Z" fill="#21325B"/>
<path d="M130.459 99.966C130.628 100.362 130.763 100.774 130.878 101.188C130.967 101.509 131.089 101.857 131.051 102.192C131.044 102.257 130.957 102.264 130.923 102.22C130.705 101.944 130.612 101.568 130.491 101.243C130.349 100.865 130.2 100.49 130.069 100.108C129.982 99.8544 130.356 99.7218 130.459 99.966Z" fill="#21325B"/>
<path d="M175.624 169.314C172.817 164.059 169.924 158.851 167.019 153.648C165.588 151.084 164.094 148.548 162.727 145.948C161.376 143.38 160.461 140.682 159.607 137.919C157.871 132.306 156.226 126.665 154.673 120.999C153.121 115.333 151.671 109.639 150.3 103.927C149.957 102.498 149.582 101.07 149.305 99.627C149.018 98.1281 149.104 96.7267 149.312 95.2246C149.502 93.8515 149.556 92.5003 149.344 91.1254C149.135 89.7669 148.793 88.4307 148.38 87.1204C148.163 86.43 147.927 85.7455 147.688 85.0619C147.662 84.9854 147.543 85.0204 147.567 85.0984C148.417 87.8651 149.286 90.6623 149.104 93.5927C149.016 95.0018 148.641 96.3845 148.666 97.8018C148.69 99.2122 149.063 100.595 149.382 101.961C150.721 107.709 152.168 113.431 153.702 119.132C155.235 124.832 156.862 130.507 158.583 136.153C159.42 138.899 160.202 141.689 161.39 144.31C162.58 146.936 164.086 149.416 165.504 151.924C168.433 157.106 171.387 162.276 174.407 167.407C174.789 168.057 175.176 168.705 175.561 169.354C175.585 169.395 175.646 169.356 175.624 169.314Z" fill="#21325B"/>
<path d="M139.579 56.898C140.875 60.6313 140.194 79.0235 138.275 81.221C134.959 85.0191 118.456 87.7275 114.169 87.4258C111.069 87.2075 110.818 74.474 113.55 74.0607C118.115 73.3698 130.428 72.3303 130.677 71.5933C131.982 67.7329 132.898 64.1691 134.659 58.086C135.887 53.8428 138.148 52.7759 139.579 56.898Z" fill="white"/>
<path d="M116.237 87.1158C117.626 86.172 116.919 74.9115 115.372 74.1499C115.08 74.0082 113.347 73.2986 112.689 72.9459C112.042 72.5986 109.037 70.9594 106.794 68.4205C104.906 66.2914 102.348 62.9153 101.159 63.8824C99.4208 65.2874 102.139 69.9431 103.864 72.5212C102.176 72.6456 100.735 72.9108 99.9523 73.3711C97.3533 74.9001 99.9321 86.4546 102.972 86.8848C105.904 87.2995 114.849 88.0596 116.237 87.1158Z" fill="white"/>
<path d="M106.549 73.5338C107.469 74.7984 105.444 75.1525 105.444 75.1525C105.444 75.1525 108.482 75.3408 108.923 77.0096C109.345 78.6188 106.883 78.9611 106.708 78.9879C106.868 78.9993 109.656 79.245 109.926 80.9672C110.205 82.7573 107.675 82.6789 107.511 82.6729C107.66 82.7313 109.607 83.532 109.513 84.8869C109.351 87.2147 104.313 85.3029 102.614 86.1465C102.614 86.1465 102.835 86.6797 102.848 86.774C102.848 86.774 98.8651 86.4828 97.8905 85.2041C97.073 84.1317 98.4069 83.228 98.4069 83.228C98.4069 83.228 96.788 82.8443 96.5323 81.4949C96.4031 80.8022 97.402 79.9801 97.402 79.9801C97.402 79.9801 96.1185 79.6187 95.9664 78.4046C95.8418 77.4362 96.8636 76.7617 96.8636 76.7617C96.8636 76.7617 95.7932 75.8462 95.9893 74.8158C96.3802 72.7363 104.577 70.8277 106.549 73.5338Z" fill="white"/>
<path d="M97.0096 76.6305C96.983 76.6391 96.9656 76.6036 96.9912 76.5903C99.533 75.3084 102.72 74.6745 105.552 75.1215C105.645 75.1361 105.661 75.2924 105.555 75.2961C102.549 75.3904 99.8881 75.7122 97.0096 76.6305Z" fill="#21325B"/>
<path d="M97.3578 79.9732C97.3267 79.9832 97.3092 79.9317 97.3409 79.9163C99.9669 78.6092 103.577 77.9935 106.779 78.8913C106.889 78.9223 106.957 79.059 106.827 79.0335C104.653 78.5969 99.9445 79.1333 97.3578 79.9732Z" fill="#21325B"/>
<path d="M107.713 82.8119C104.609 82.0696 101.578 82.3913 98.5123 83.167C98.4724 83.177 98.4623 83.12 98.493 83.1022C99.8887 82.3166 101.895 82.0245 103.475 81.9287C104.988 81.8372 106.373 82.0568 107.739 82.7039C107.793 82.7295 107.78 82.8279 107.713 82.8119Z" fill="#21325B"/>
<path d="M105.481 75.1147C105.593 75.1325 105.444 75.2751 105.555 75.2961C106.022 75.3854 108.782 76.162 108.808 77.1796C108.826 77.9949 107.738 78.586 107.23 78.6498L105.954 78.8102L107.209 79.101C107.757 79.2281 108.318 79.4387 108.792 79.7344C109.265 80.0284 109.658 80.4463 109.736 80.9439C109.827 81.4621 109.617 81.9365 109.144 82.1552C108.686 82.3904 108.081 82.4506 107.536 82.4214L106.014 82.3389L107.419 82.9095C107.8 83.064 108.187 83.2772 108.518 83.527C108.847 83.7785 109.138 84.0871 109.253 84.4398C109.368 84.7852 109.292 85.1972 109.034 85.4319C108.766 85.683 108.335 85.7951 107.916 85.8612C107.059 85.9861 106.164 85.9296 105.273 85.9173C104.828 85.9077 104.379 85.8972 103.931 85.9086C103.487 85.9278 103.018 85.9432 102.614 86.1465C103.034 85.987 103.49 86.0221 103.929 86.0317C104.373 86.054 104.816 86.0977 105.26 86.1415C106.149 86.2285 107.043 86.306 107.963 86.2244C108.415 86.1684 108.905 86.0914 109.32 85.7518C109.747 85.3982 109.859 84.7912 109.7 84.3008C109.541 83.7995 109.184 83.4354 108.819 83.1437C108.442 82.853 108.047 82.6255 107.605 82.4378L107.488 82.9259C108.131 82.966 108.767 82.9263 109.391 82.6306C109.697 82.4834 109.985 82.2222 110.135 81.8859C110.286 81.5487 110.304 81.1937 110.245 80.855C110.117 80.1514 109.583 79.6428 109.05 79.3233C108.5 78.9957 107.919 78.7883 107.298 78.6539L107.277 79.1051C107.92 79.0021 109.209 78.4739 109.34 77.2051C109.26 75.5253 106.07 75.1434 105.481 75.1147Z" fill="#21325B"/>
<path d="M105.444 75.1525C105.76 75.0222 106.056 74.8654 106.279 74.6754C106.504 74.4863 106.604 74.2338 106.56 73.9964C106.522 73.7562 106.325 73.5119 106.106 73.2904C105.877 73.0731 105.626 72.8557 105.358 72.6415C105.699 72.7021 106.027 72.8283 106.322 73.0257C106.611 73.2216 106.903 73.4964 106.993 73.9216C107.022 74.1349 106.991 74.3477 106.895 74.535C106.793 74.7191 106.642 74.8609 106.477 74.9525C106.15 75.1421 105.786 75.1867 105.444 75.1525Z" fill="#21325B"/>
<path d="M115.42 73.3406L116.983 89.0149C116.983 89.0149 134.832 86.3822 138.81 81.5241C140.816 79.0741 140.665 63.033 140.126 58.3171C139.587 53.6013 136.411 52.4405 134.544 57.6431C132.677 62.8457 130.943 70.6505 130.553 71.1053C130.162 71.5596 115.42 73.3406 115.42 73.3406Z" fill="#21325B"/>
<path d="M120.156 86.5727C119.842 84.5716 118.854 76.3357 118.762 74.5419C118.756 74.4175 118.833 74.3833 118.857 74.5118C119.945 80.486 120.137 84.68 120.235 86.5576C120.238 86.6073 120.164 86.6237 120.156 86.5727Z" fill="white"/>
<path d="M151.892 90.4454C151.819 90.522 121.896 89.7719 121.629 89.4501C121.255 88.9971 126.823 60.1072 132.02 53.7129C133.319 52.1137 137.489 51.9041 139.415 53.4568C148.954 61.1513 152.154 90.1683 151.892 90.4454Z" fill="#21325B"/>
<path d="M151.667 87.6905L121.952 86.8428C122.066 86.1684 122.208 85.38 122.373 84.505L151.351 85.3298C151.48 86.2139 151.585 87.0069 151.667 87.6905Z" fill="#21325B"/>
<path d="M151.187 84.2315L122.589 83.4203C122.64 83.1788 122.69 82.9281 122.74 82.6729L151.067 83.4796C151.109 83.7348 151.145 83.9854 151.187 84.2315Z" fill="#21325B"/>
<path d="M133.379 57.8189C134.646 58.0664 137.655 56.0908 138.991 54.2465C139.082 54.1193 139.052 52.6637 139.099 50.8928C139.132 49.8182 139.193 48.6228 139.329 47.5359L132.268 48.3453C132.268 48.3453 132.657 50.7069 132.409 52.6004C132.386 52.7585 132.352 52.9039 132.306 53.0406C132.301 53.0607 132.292 53.0848 132.287 53.1131C132.042 53.9434 131.394 57.4316 133.379 57.8189Z" fill="white"/>
<path d="M132.307 53.0415C132.302 53.062 132.291 53.083 132.286 53.1139C132.499 53.1709 132.728 53.2119 132.988 53.2379C136.895 53.6307 138.439 49.0256 138.818 47.5942L132.265 48.3434C132.265 48.3434 132.655 50.7054 132.411 52.6022C132.385 52.7571 132.353 52.902 132.307 53.0415Z" fill="#21325B"/>
<path d="M140.601 38.3379C141.342 40.7756 140.031 47.8088 138.285 49.3733C135.754 51.6415 131.619 51.8484 129.683 48.8242C127.807 45.8929 129.68 36.757 131.629 35.336C134.501 33.2438 139.507 34.7372 140.601 38.3379Z" fill="white"/>
<path d="M134.091 42.2453C134.098 42.2279 134.124 42.2749 134.119 42.294C134.012 42.7643 133.969 43.3203 134.369 43.56C134.381 43.5673 134.375 43.591 134.36 43.586C133.849 43.4115 133.914 42.6736 134.091 42.2453Z" fill="#21325B"/>
<path d="M134.612 41.8328C135.388 41.9222 135.151 43.4598 134.432 43.3768C133.724 43.2953 133.961 41.7581 134.612 41.8328Z" fill="#21325B"/>
<path d="M131.274 41.7166C131.273 41.6979 131.233 41.7335 131.231 41.7531C131.172 42.2316 131.025 42.7698 130.568 42.8623C130.553 42.865 130.551 42.8892 130.568 42.8896C131.107 42.896 131.296 42.1792 131.274 41.7166Z" fill="#21325B"/>
<path d="M130.922 41.1542C130.161 40.9788 129.864 42.5059 130.569 42.6686C131.263 42.8281 131.56 41.301 130.922 41.1542Z" fill="#21325B"/>
<path d="M135.33 41.2226C135.128 41.1378 134.955 41.0262 134.764 40.9218C134.548 40.8038 134.363 40.7322 134.245 40.5053C134.182 40.3836 134.245 40.1922 134.358 40.1197C134.622 39.9507 134.922 40.0295 135.188 40.1608C135.477 40.3034 135.663 40.4866 135.795 40.7774C135.925 41.0604 135.597 41.3343 135.33 41.2226Z" fill="#21325B"/>
<path d="M130.477 40.4734C130.696 40.4711 130.899 40.4328 131.116 40.4082C131.36 40.3804 131.558 40.3836 131.754 40.2182C131.86 40.1298 131.874 39.9283 131.797 39.8185C131.617 39.5629 131.309 39.5228 131.013 39.5442C130.692 39.5674 130.45 39.6668 130.216 39.886C129.989 40.0988 130.187 40.4761 130.477 40.4734Z" fill="#21325B"/>
<path d="M133.853 46.7328C133.721 46.8267 133.583 46.9629 133.407 46.9511C133.238 46.9397 133.054 46.8353 132.911 46.7529C132.897 46.7447 132.879 46.7583 132.887 46.7743C132.983 46.9762 133.227 47.1302 133.455 47.1256C133.677 47.1211 133.813 46.9511 133.896 46.762C133.907 46.7351 133.872 46.7191 133.853 46.7328Z" fill="#21325B"/>
<path d="M133.57 45.2308C133.238 45.6031 132.809 45.769 132.37 45.7863C132.174 45.7954 131.973 45.7713 131.779 45.7239C131.741 45.717 131.703 45.707 131.669 45.6943C131.635 45.6847 131.604 45.676 131.567 45.6624C131.512 45.6459 131.488 45.5949 131.487 45.5411L131.487 45.5375C131.491 45.5202 131.493 45.506 131.499 45.4892C131.499 45.4892 131.499 45.4892 131.5 45.4855L131.507 45.4441C131.553 45.0758 131.675 44.5235 131.675 44.5235C131.53 44.57 130.796 44.7728 130.836 44.5827C131.176 43.0114 131.553 41.2637 132.224 39.7712C132.244 39.721 132.322 39.7452 132.31 39.7967C132.044 41.3197 131.51 42.7863 131.218 44.3116C131.45 44.2624 131.832 44.1635 132.024 44.1963C132.074 44.2191 131.77 45.2595 131.762 45.4263C131.762 45.4263 131.761 45.4331 131.763 45.4441C132.37 45.6172 132.866 45.5024 133.531 45.1802C133.571 45.1592 133.604 45.1971 133.57 45.2308Z" fill="#21325B"/>
<path d="M132.027 45.5707C132.027 45.5707 132.286 46.0592 132.709 46.2857C132.865 46.3696 133.039 46.4202 133.233 46.3992C133.631 46.3577 133.694 46.01 133.67 45.7006C133.651 45.4463 133.569 45.2175 133.569 45.2175C133.569 45.2175 132.93 45.6518 132.027 45.5707Z" fill="#21325B"/>
<path d="M132.709 46.2857C132.865 46.3696 133.039 46.4202 133.233 46.3992C133.631 46.3577 133.694 46.01 133.67 45.7006C133.254 45.6801 132.805 45.8947 132.709 46.2857Z" fill="white"/>
<path d="M138.341 41.8975C137.903 40.4948 138.766 38.1879 138.084 37.5458C136.609 36.1554 133.447 38.6646 131.323 38.6222C129.264 38.5808 128.61 37.2464 129.027 35.5948C129.442 33.9433 130.891 32.8641 133.21 32.5816C135.609 32.2894 137.762 33.3039 138.926 34.09C138.926 34.09 138.428 33.2469 138.629 32.9944C138.831 32.742 139.818 33.5655 140.117 33.9137C140.421 34.2673 140.594 34.9135 140.594 34.9135C140.594 34.9135 140.973 34.8123 141.537 34.8415C142.06 34.8684 142.708 35.2936 142.743 35.4166C142.777 35.5401 142.025 35.6153 141.499 35.6281C141.499 35.6281 142.444 36.9474 142.394 38.0535C142.343 39.1595 140.472 44.3721 140.055 44.4177C139.518 44.4765 138.519 42.4677 138.341 41.8975Z" fill="#21325B"/>
<path d="M141.3 35.4887C141.282 35.4773 141.257 35.5019 141.274 35.5178C141.764 35.9612 142.156 36.4726 142.346 37.1124C142.567 37.8566 142.495 38.6509 142.308 39.3938C141.944 40.8393 141.195 42.1391 140.538 43.4648C140.519 43.5035 140.585 43.5373 140.606 43.4994C141.392 42.14 142.194 40.6616 142.517 39.1144C142.793 37.7946 142.524 36.2625 141.3 35.4887Z" fill="#21325B"/>
<path d="M138.179 37.0108C137.577 36.911 136.903 36.9502 136.309 37.0832C135.723 37.214 135.216 37.5613 134.687 37.8293C133.501 38.4308 132.205 38.887 130.856 38.769C130.839 38.7676 130.837 38.7931 130.854 38.7954C132.086 38.9818 133.303 38.6478 134.414 38.1332C134.975 37.8739 135.508 37.4952 136.096 37.3047C136.765 37.0883 137.478 37.1165 138.171 37.1206C138.243 37.1215 138.249 37.0222 138.179 37.0108Z" fill="#21325B"/>
<path d="M137.673 33.4752C136.856 33.0327 135.962 32.7333 135.055 32.5383C134.184 32.351 133.282 32.2566 132.395 32.3765C130.863 32.5838 129.435 33.5131 129.037 35.0612C128.835 35.8455 128.895 36.7146 129.285 37.4337C129.311 37.4825 129.384 37.4469 129.363 37.3963C128.772 36.0164 129.061 34.3689 130.251 33.3941C131.53 32.3473 133.289 32.3104 134.842 32.5989C135.821 32.7803 136.752 33.1057 137.668 33.4844C137.674 33.4876 137.679 33.478 137.673 33.4752Z" fill="#21325B"/>
<path d="M139.074 44.0687C139.074 44.0687 140.725 41.8297 141.75 42.4203C142.775 43.0109 141.497 46.2817 140.268 46.7051C139.04 47.1289 138.623 46.0051 138.623 46.0051L139.074 44.0687Z" fill="white"/>
<path d="M141.361 43.3491C141.38 43.3477 141.384 43.3751 141.366 43.3814C140.504 43.7064 140.036 44.4843 139.703 45.2941C139.964 44.9851 140.314 44.8206 140.731 45.131C140.753 45.1474 140.73 45.1816 140.706 45.1761C140.358 45.0936 140.104 45.1483 139.861 45.4217C139.69 45.6154 139.569 45.8624 139.444 46.0875C139.403 46.1627 139.266 46.119 139.297 46.0319C139.299 46.0256 139.302 46.0187 139.304 46.0123C139.307 44.9286 140.189 43.4316 141.361 43.3491Z" fill="#21325B"/>
<path d="M136.241 63.8241C132.933 63.6341 115.307 61.941 111.496 58.3153C105.828 52.9236 103.094 44.1134 101.69 40.33C101.079 38.6812 112.061 33.5228 112.969 35.1702C114.914 38.6989 119.021 48.2391 120.011 49.2413C121.001 50.2434 132.003 54.5127 137.649 57.0192C145.223 60.3824 144.276 64.2853 136.241 63.8241Z" fill="white"/>
<path d="M112.864 36.1277C112.864 36.1277 113.211 31.3048 112.606 28.7144C111.794 25.2459 109.658 22.5835 108.695 21.5217C106.685 19.305 100.284 15.3274 98.8104 16.9612C97.4765 18.44 104.226 22.177 104.226 22.177C104.226 22.177 97.9764 17.2374 96.6998 19.3118C95.4228 21.3863 103.506 25.281 103.506 25.281C103.506 25.281 96.9706 20.3491 95.9942 22.6952C95.2564 24.4684 102.378 28.4059 102.378 28.4059C102.378 28.4059 96.7305 24.2055 95.8929 25.9965C94.9668 27.9757 101.311 32.0203 101.311 32.0203C99.9513 36.9294 101.388 40.5255 102.721 41.8503C103.115 42.2418 112.864 36.1277 112.864 36.1277Z" fill="white"/>
<path d="M106.498 23.7474C105.785 23.1409 105.068 22.522 104.303 21.9806C103.538 21.4392 102.754 20.9238 101.942 20.4553C99.95 19.3064 98.5226 18.8971 98.6079 18.9322C100.628 19.7562 103.396 21.6529 104.161 22.1948C104.924 22.7353 105.715 23.2375 106.479 23.7775C106.498 23.7907 106.515 23.7616 106.498 23.7474Z" fill="#21325B"/>
<path d="M104.582 26.5292C103.638 25.7937 102.728 25.0294 101.751 24.3349C100.778 23.644 99.795 23.0734 98.7778 22.4509C98.6994 22.403 98.6994 22.4605 98.776 22.512C99.7675 23.1741 100.633 23.8627 101.617 24.5363C102.597 25.208 103.612 25.8465 104.566 26.5529C104.581 26.5643 104.596 26.5406 104.582 26.5292Z" fill="#21325B"/>
<path d="M103.37 29.2112C101.985 28.0135 100.379 27.072 98.7819 26.1856C98.7022 26.1414 98.7104 26.2161 98.7892 26.2658C100.333 27.2429 101.551 27.9985 103.328 29.2595C103.355 29.2791 103.399 29.2362 103.37 29.2112Z" fill="#21325B"/>
<path d="M100.616 43.0908L113.894 36.115C113.894 36.115 119.018 47.6403 120.091 48.7896C121.164 49.939 137.32 56.0134 140.946 58.6402C144.573 61.267 143.565 63.8938 138.812 64.1463C134.058 64.3988 115.266 61.9743 111.862 59.2463C108.46 56.5188 100.616 43.0908 100.616 43.0908Z" fill="#21325B"/>
<path d="M114.252 39.8351C112.486 40.8427 105.105 44.7027 103.453 45.4296C103.339 45.4802 103.279 45.42 103.391 45.3521C108.613 42.2062 112.482 40.5287 114.21 39.7667C114.256 39.7466 114.297 39.8091 114.252 39.8351Z" fill="white"/>
<path d="M102.134 13.1513C102.417 11.4127 102.834 9.71058 103.284 8.01665C103.747 6.32635 104.244 4.64518 104.876 3C104.594 4.7386 104.177 6.4412 103.726 8.13468C103.262 9.82452 102.765 11.5057 102.134 13.1513Z" fill="#21325B"/>
<path d="M92.3647 14.4246C91.3286 12.9964 90.4131 11.4993 89.5269 9.98538C88.6526 8.46462 87.8086 6.92608 87.086 5.31873C88.1229 6.74652 89.0385 8.24359 89.9238 9.75797C90.7971 11.2792 91.6412 12.8173 92.3647 14.4246Z" fill="#21325B"/>
<path d="M86.3639 22.1943C84.6158 21.9131 82.9039 21.4984 81.2011 21.0509C79.5016 20.5902 77.8112 20.0962 76.1571 19.4677C77.9052 19.748 79.6171 20.1627 81.3198 20.6111C83.0189 21.0723 84.7093 21.5668 86.3639 22.1943Z" fill="#21325B"/>
<path d="M84.9149 33.4731C83.9334 34.2428 82.8827 34.8927 81.8146 35.5138C80.7401 36.1227 79.6477 36.7015 78.4857 37.1599C79.4667 36.3893 80.5174 35.7394 81.586 35.1192C82.6614 34.5112 83.7534 33.9325 84.9149 33.4731Z" fill="#21325B"/>
<path d="M114.537 29.7193C115.733 29.8533 116.894 30.1208 118.045 30.4206C119.193 30.7342 120.332 31.0805 121.435 31.5618C120.238 31.4287 119.078 31.1612 117.927 30.8604C116.778 30.5464 115.64 30.1996 114.537 29.7193Z" fill="#21325B"/>
<path d="M109.946 19.1209C111.382 18.0905 112.888 17.1799 114.41 16.2986C115.939 15.429 117.486 14.5896 119.102 13.8709C117.667 14.9022 116.162 15.8128 114.639 16.6932C113.109 17.5614 111.562 18.4008 109.946 19.1209Z" fill="#21325B"/>
<path d="M81.7006 18.6319C82.4558 18.7641 83.1546 19.0238 83.84 19.3137C84.5201 19.6167 85.1863 19.9503 85.7962 20.4124C85.041 20.2812 84.3423 20.0214 83.6568 19.7307C82.9772 19.4267 82.3105 19.0931 81.7006 18.6319Z" fill="#21325B"/>
<path d="M108.541 3.70408C108.126 4.73129 107.666 5.73617 107.2 6.73786C106.739 7.74183 106.245 8.72939 105.751 9.71695C105.247 10.7 104.743 11.682 104.207 12.6486L103.401 14.0979C103.118 14.5732 102.848 15.0558 102.553 15.5252C102.756 15.0093 102.985 14.5066 103.201 13.9971L103.892 12.491C104.354 11.4875 104.848 10.4994 105.342 9.51233C105.846 8.52978 106.351 7.54723 106.887 6.58109C107.419 5.61221 107.957 4.64698 108.541 3.70408Z" fill="#21325B"/>
<path d="M113.147 21.3553C114.928 21.0194 116.721 20.8217 118.518 20.6571C120.315 20.5063 122.116 20.3901 123.928 20.4124C122.147 20.7492 120.354 20.947 118.557 21.1106C116.76 21.2605 114.96 21.3767 113.147 21.3553Z" fill="#21325B"/>
<path d="M83.3718 32.1574C81.9646 32.7772 80.5167 33.2653 79.0582 33.721C77.596 34.1635 76.1233 34.5732 74.6093 34.8494C76.016 34.2282 77.4645 33.7406 78.923 33.2858C80.3856 32.8442 81.8583 32.4349 83.3718 32.1574Z" fill="#21325B"/>
</svg>
