<?xml version="1.0" encoding="UTF-8"?>
<!-- Generator: Adobe Illustrator 24.2.3, SVG Export Plug-In . SVG Version: 6.00 Build 0)  -->
<svg xmlns="http://www.w3.org/2000/svg" xmlns:xlink="http://www.w3.org/1999/xlink" version="1.1" id="Layer_1" x="0px" y="0px" viewBox="0 0 512 512" style="enable-background:new 0 0 512 512;" xml:space="preserve">
<style type="text/css">
	.st0{fill:#F18A00;}
</style>
<g>
	<path class="st0" d="M436.67,75.44C388.36,27.13,324.12,0.52,255.8,0.52S123.24,27.13,74.92,75.44C26.61,123.75,0,187.99,0,256.32   c0,109.09,69.29,206.27,172.42,241.82l0.12,0.04l0.12,0.05c0.27,0.11,0.54,0.24,0.81,0.37c0.13,0.06,0.26,0.13,0.4,0.18   c0,0,0,0,0,0c0.02,0,0.07,0.01,0.13,0.02c0.29,0.05,0.57,0.1,0.85,0.18c1.36,0.35,2.75,0.53,4.14,0.53c7,0,13.25-4.44,15.54-11.04   l1.59-4.59l0.01,0.01c1.8-5.41,4.68-14.08,5.97-17.99l0.04-0.12l0.05-0.12l0.03-0.06l0.56-1.73l33.52-104l3.12-9.69l4.74,9.01   l8.86,16.84l1.08,2.05l-1.13,2.03c-0.82,1.47-1.5,3.02-2.01,4.59c-2.09,6.45-1.54,13.32,1.55,19.35   c3.08,6.03,8.33,10.5,14.78,12.59c2.54,0.82,5.17,1.24,7.81,1.24c11.03,0,20.73-7.06,24.13-17.56c2.09-6.45,1.54-13.32-1.55-19.35   c-3.08-6.03-8.33-10.5-14.78-12.59c-1.85-0.6-3.84-0.98-5.94-1.14l-2.37-0.18l-1.1-2.1l-8.54-16.24l-4.83-9.17l9.89,3.09   l63.63,19.91l2.15,0.67l0.66,2.16c2.43,7.93,8.58,14.18,16.43,16.72c2.52,0.82,5.13,1.23,7.75,1.23c3.58,0,7.08-0.75,10.39-2.23   l0.18-0.08c2.03-0.93,3.93-2.11,5.63-3.51l0.13-0.11l0.2-0.18c0.72-0.62,1.42-1.28,2.06-1.97l0.23-0.24l0.12-0.13   c0.73-0.81,1.4-1.66,1.98-2.51l0.06-0.09c0.07-0.12,0.15-0.24,0.22-0.35c0.48-0.73,0.94-1.51,1.36-2.34   c0.14-0.27,0.27-0.52,0.39-0.77c0.54-1.15,0.93-2.11,1.23-3.04c0.48-1.49,0.83-3.08,1.03-4.73l0.02-0.12l0.01-0.04   c0.17-1.5,0.21-3.05,0.1-4.61c-0.7-10.42-7.57-19.23-17.48-22.43c-2.53-0.82-5.15-1.24-7.78-1.24c-6.25,0-12.28,2.32-16.97,6.53   l-1.81,1.63l-2.33-0.73l-62.83-19.65l-9.95-3.11l9.27-4.78l49.84-25.68c7.31,7.93,17.75,12.92,29.38,12.92   c22.09,0,39.99-17.91,39.99-39.99c0-22.09-17.91-39.99-39.99-39.99c-22.09,0-39.99,17.91-39.99,39.99c0,2.08,0.21,4.11,0.51,6.1   l-49.83,25.68l-9.22,4.75l3.18-9.87l42.65-132.36c2.07-0.17,3.14-0.49,3.46-0.92c10.24-3.26,17.65-12.84,17.65-24.16   c0-14-11.35-25.36-25.36-25.36c-14,0-25.36,11.35-25.36,25.36c0,6.58,2.53,12.56,6.64,17.07c-0.27,0.27-0.11,0.69,0.67,1.3   l-42.97,133.34l-3.12,9.69l-4.74-9.01l-48.83-92.85l-1.08-2.06l1.13-2.03c0.82-1.47,1.5-3.02,2.01-4.6   c2.09-6.45,1.54-13.32-1.55-19.35c-3.08-6.03-8.33-10.5-14.78-12.59c-2.54-0.82-5.17-1.24-7.81-1.24   c-11.03,0-20.73,7.06-24.13,17.56c-4.31,13.31,3.02,27.64,16.32,31.94c1.84,0.6,3.84,0.98,5.94,1.14l2.37,0.18l1.1,2.1l48.28,91.79   l4.82,9.17l-9.89-3.09l-25.92-8.11l-2.23-0.7l-0.62-2.25c-2.28-8.28-8.5-14.8-16.64-17.43c-2.54-0.82-5.17-1.24-7.81-1.24   c-11.03,0-20.73,7.06-24.13,17.56c-2.09,6.45-1.54,13.32,1.55,19.35c3.08,6.03,8.33,10.5,14.78,12.59   c2.53,0.82,5.15,1.23,7.78,1.23c5.99,0,11.82-2.15,16.44-6.06l1.8-1.52l2.25,0.7l25.18,7.88l9.95,3.11l-9.27,4.78l-29,14.94   l-2.13,1.1l-2.05-1.24c-1.74-1.05-3.53-1.88-5.33-2.46c-2.54-0.82-5.17-1.24-7.81-1.24c-11.03,0-20.73,7.06-24.13,17.56   c-2.09,6.45-1.54,13.32,1.55,19.35c3.08,6.03,8.33,10.5,14.78,12.59c2.54,0.82,5.17,1.24,7.81,1.24c11.03,0,20.73-7.06,24.13-17.56   c0.53-1.65,0.9-3.35,1.09-5.07l0.25-2.28l2.04-1.05l30.44-15.69l9.22-4.75l-3.18,9.87l-33.63,104.34l-1.4,4.36l-4.25-1.69   c-40.23-16.02-74.54-43.38-99.24-79.11C50.37,343.9,37,300.96,37,256.32c0-120.65,98.15-218.8,218.8-218.8s218.8,98.15,218.8,218.8   c0,49.82-17.43,98.62-49.07,137.41c-31.08,38.1-74.46,65.04-122.17,75.89c-14.48,4.08-33.92,5.16-41.61,5.43l-0.21,0.01l-0.21-0.01   l-0.1-0.01l-0.08,0c-0.28,0-0.57,0.02-0.85,0.04c-0.23,0.01-0.45,0.03-0.68,0.04c-0.2,0.01-0.41,0.01-0.62,0.02   c-0.13,0-0.27,0-0.4,0.01c-1.14,0.11-2.15,0.3-3.1,0.56c-0.13,0.05-0.25,0.09-0.38,0.13c-0.94,0.28-1.9,0.66-2.85,1.13   c-0.15,0.08-0.3,0.17-0.45,0.26c-0.16,0.09-0.32,0.19-0.48,0.28c-0.76,0.43-1.36,0.81-1.88,1.2c-0.33,0.24-0.64,0.51-0.96,0.77   c-0.53,0.45-1.05,0.94-1.55,1.47c-0.28,0.3-0.56,0.6-0.83,0.92c-0.41,0.5-0.83,1.1-1.32,1.88c-0.1,0.17-0.21,0.33-0.32,0.5   c-0.09,0.14-0.19,0.28-0.27,0.42c-0.61,1.12-1.07,2.17-1.4,3.19c-3.14,9.72,2.2,20.18,11.92,23.32c1.72,0.56,3.58,0.84,5.54,0.84   c0.34,0,0.68-0.01,1.02-0.02l0.05,0l0.05,0l0.81-0.02l0.29-0.01c66.91-1.73,129.54-29.08,176.35-77.02   c46.9-48.03,72.73-111.46,72.73-178.61C511.6,187.99,484.99,123.75,436.67,75.44z M354.85,239.07c11.32,0,20.49,9.17,20.49,20.49   c0,11.32-9.17,20.49-20.49,20.49c-11.32,0-20.49-9.17-20.49-20.49C334.36,248.25,343.54,239.07,354.85,239.07z"></path>
</g>
</svg>
