<svg width="15" height="14" viewBox="0 0 15 14" fill="none" xmlns="http://www.w3.org/2000/svg">
<path d="M14.0892 4.11055L12.0713 10.1553C11.9516 10.5138 11.6177 10.7553 11.2418 10.7553H4.41219C4.00704 10.7553 3.65486 10.4755 3.56101 10.0789L1.60752 1.82514H1.00993C0.526682 1.82514 0.134949 1.43098 0.134949 0.944789C0.134949 0.458602 0.526682 0.0644379 1.00993 0.0644379H2.29862C2.70376 0.0644379 3.05595 0.344304 3.14982 0.740837L5.10329 8.99464H10.6127L12.4303 3.54994C12.5841 3.08906 13.0802 2.84091 13.5383 2.99568C13.9964 3.15051 14.243 3.64967 14.0892 4.11055ZM4.99379 11.5985C4.42527 11.5985 3.96159 12.065 3.96159 12.637C3.96159 13.209 4.42529 13.6755 4.99379 13.6755C5.56232 13.6755 6.026 13.209 6.026 12.637C6.026 12.065 5.56232 11.5985 4.99379 11.5985ZM10.7837 11.5985C10.2152 11.5985 9.75151 12.065 9.75151 12.637C9.75151 13.209 10.2152 13.6755 10.7837 13.6755C11.3522 13.6755 11.8159 13.209 11.8159 12.637C11.8159 12.065 11.3522 11.5985 10.7837 11.5985Z" fill="#71869D"/>
</svg>
