<svg width="17" height="13" viewBox="0 0 17 13" fill="none" xmlns="http://www.w3.org/2000/svg">
<path d="M14.6602 0H1.47266C0.698219 0 0.0664062 0.635225 0.0664062 1.41538V10.8513C0.0664062 11.6288 0.695406 12.2667 1.47266 12.2667H14.6602C15.4327 12.2667 16.0664 11.6336 16.0664 10.8513V1.41538C16.0664 0.637867 15.4374 0 14.6602 0ZM14.466 0.94359L8.09622 7.35475L1.67138 0.94359H14.466ZM1.00391 10.6559V1.60627L5.51888 6.1116L1.00391 10.6559ZM1.66681 11.3231L6.18463 6.77592L7.76766 8.35555C7.95091 8.53842 8.24662 8.53782 8.42912 8.3541L9.97266 6.80055L14.466 11.3231H1.66681ZM15.1289 10.6559L10.6356 6.13333L15.1289 1.61077V10.6559Z" fill="white"/>
</svg>
