<svg width="14" height="13" viewBox="0 0 14 13" fill="none" xmlns="http://www.w3.org/2000/svg">
<path d="M7 2.39626L6.39372 1.748C5.89626 1.25408 5.30552 0.968536 4.62151 0.891362C3.9375 0.814188 3.27681 0.929949 2.63944 1.23865C2.00206 1.54734 1.52792 2.01039 1.21701 2.62778C0.968274 3.1217 0.859454 3.66192 0.890546 4.24844C0.921637 4.95844 1.12373 5.68388 1.49683 6.42476C1.93211 7.28911 2.56948 8.15346 3.40895 9.01781C4.37278 10.0056 5.5698 10.9935 7 11.9813C8.4302 10.9935 9.62722 10.0056 10.5911 9.01781C11.4305 8.15346 12.0679 7.28911 12.5032 6.42476C12.8763 5.68388 13.0784 4.95844 13.1095 4.24844C13.1405 3.66192 13.0317 3.1217 12.783 2.62778C12.4721 2.01039 11.9979 1.54734 11.3606 1.23865C10.7232 0.929949 10.0625 0.814188 9.37849 0.891362C8.69448 0.968536 8.10374 1.25408 7.60628 1.748L7 2.39626ZM7 13C5.38325 11.9504 4.04632 10.8854 2.98921 9.80499C1.99429 8.84803 1.2481 7.87563 0.750634 6.8878C0.315355 6.02345 0.0666244 5.18997 0.00444162 4.38735C-0.0266497 3.64648 0.105489 2.97507 0.400857 2.37311C0.696225 1.77115 1.10041 1.27723 1.61342 0.891362C2.12643 0.505491 2.69385 0.243098 3.31567 0.104185C3.9375 -0.034729 4.55933 -0.034729 5.18115 0.104185C5.80298 0.243098 6.36263 0.528644 6.86009 0.960819L7 1.14604L7.13991 0.960819C7.63737 0.528644 8.19702 0.243098 8.81884 0.104185C9.44067 -0.034729 10.0625 -0.034729 10.6843 0.104185C11.3062 0.243098 11.8736 0.505491 12.3866 0.891362C12.8996 1.27723 13.3038 1.77115 13.5991 2.37311C13.8945 2.97507 14.0266 3.64648 13.9956 4.38735C13.9334 5.18997 13.6846 6.02345 13.2494 6.8878C12.7519 7.87563 12.0057 8.84803 11.0108 9.80499C9.95368 10.8854 8.61675 11.9504 7 13Z" fill="#71869D"/>
</svg>
