<svg width="17" height="17" viewBox="0 0 17 17" fill="none" xmlns="http://www.w3.org/2000/svg">
<g clip-path="url(#clip0_130_6029)">
<path d="M16.2864 8.23998C16.2864 7.57998 16.2364 7.09998 16.1164 6.59998H8.60645V9.56998H13.0164C12.9264 10.31 12.4464 11.42 11.3764 12.17L11.3664 12.27L13.7364 14.11L13.8964 14.13C15.4164 12.73 16.2864 10.67 16.2864 8.23998Z" fill="#4285F4"/>
<path d="M8.6068 16.06C10.7668 16.06 12.5768 15.35 13.9068 14.12L11.3868 12.16C10.7068 12.63 9.8068 12.96 8.6168 12.96C6.4968 12.96 4.7068 11.56 4.0668 9.64001L3.9768 9.65001L1.4968 11.56L1.4668 11.65C2.7768 14.26 5.4768 16.06 8.6068 16.06Z" fill="#34A853"/>
<path d="M4.05645 9.63999C3.88645 9.13999 3.78645 8.60999 3.78645 8.05999C3.78645 7.50999 3.88645 6.97999 4.04645 6.47999V6.36999L1.54645 4.42999L1.46645 4.46999C0.916445 5.54999 0.606445 6.76999 0.606445 8.05999C0.606445 9.34999 0.916445 10.57 1.45645 11.65L4.05645 9.63999Z" fill="#FBBC05"/>
<path d="M8.60605 3.15C10.1061 3.15 11.1261 3.8 11.6961 4.34L13.9561 2.14C12.5661 0.849998 10.7661 0.0599976 8.60605 0.0599976C5.47605 0.0599976 2.77605 1.86 1.45605 4.47L4.04605 6.48C4.69605 4.55 6.48605 3.15 8.60605 3.15Z" fill="#EB4335"/>
</g>
<defs>
<clipPath id="clip0_130_6029">
<rect width="15.68" height="16" fill="white" transform="translate(0.606445 0.0599976)"/>
</clipPath>
</defs>
</svg>
