<svg width="14" height="15" viewBox="0 0 14 15" fill="none" xmlns="http://www.w3.org/2000/svg">
<path d="M10.2757 9.92642C10.8662 9.14947 11.2236 8.28704 11.3479 7.33915C11.4722 6.39127 11.3634 5.46669 11.0215 4.56542C10.6797 3.66414 10.1358 2.89496 9.38994 2.25785C8.64406 1.62075 7.80494 1.20119 6.87259 0.99918C5.94025 0.797171 5.01567 0.836019 4.09886 1.11572C3.18205 1.39543 2.37401 1.87714 1.67475 2.56086C0.975486 3.24459 0.493772 4.04485 0.229607 4.96166C-0.0345589 5.87847 -0.0656372 6.80305 0.136372 7.7354C0.338381 8.66775 0.757938 9.50687 1.39504 10.2527C2.03215 10.9986 2.80134 11.5425 3.70261 11.8844C4.60388 12.2262 5.52846 12.335 6.47635 12.2107C7.42423 12.0864 8.28666 11.729 9.06361 11.1385L12.5133 14.6348C12.6687 14.7902 12.8707 14.8679 13.1193 14.8679C13.368 14.8679 13.5777 14.7824 13.7487 14.6115C13.9196 14.4405 14.0051 14.2308 14.0051 13.9821C14.0051 13.7335 13.9274 13.5315 13.772 13.3761L10.2757 9.92642ZM10.5088 6.56997C10.5088 7.44016 10.2912 8.24043 9.85611 8.97077C9.42101 9.70111 8.8383 10.2838 8.10796 10.7189C7.37762 11.154 6.57735 11.3716 5.70716 11.3716C4.83697 11.3716 4.02893 11.154 3.28305 10.7189C2.53717 10.2838 1.95445 9.70111 1.5349 8.97077C1.11534 8.24043 0.90556 7.44016 0.90556 6.56997C0.90556 5.69977 1.11534 4.89174 1.5349 4.14586C1.95445 3.39998 2.53717 2.81726 3.28305 2.3977C4.02893 1.97815 4.83697 1.76837 5.70716 1.76837C6.57735 1.76837 7.37762 1.97815 8.10796 2.3977C8.8383 2.81726 9.42101 3.39998 9.85611 4.14586C10.2912 4.89174 10.5088 5.69977 10.5088 6.56997Z" fill="#71869D"/>
</svg>
