<svg width="19" height="19" viewBox="0 0 19 19" fill="none" xmlns="http://www.w3.org/2000/svg">
<path d="M6.35217 5.08545C6.53265 5.08545 6.71716 5.11764 6.8965 5.14868C7.00341 5.16305 7.10228 5.32054 7.15861 5.43493C7.41843 6.04307 7.67881 6.65064 7.90241 7.27315C8.02886 7.60194 7.79722 7.91693 7.31381 8.46012C7.16206 8.63199 7.13217 8.79638 7.2454 8.99641C8.00759 10.3052 9.08076 11.2491 10.4994 11.8072C10.5637 11.8319 10.6224 11.8434 10.677 11.8434C10.7983 11.8434 10.8989 11.7842 10.9937 11.671C11.6001 10.9387 11.7731 10.6185 12.0186 10.6185C12.0801 10.6185 12.1456 10.6386 12.2244 10.6771C14.1201 11.5853 14.2695 11.621 14.2753 11.8359C14.3247 13.3592 12.998 13.9575 12.0996 13.9575C12.0531 13.9575 12.0077 13.9558 11.9634 13.9529C10.1257 13.8886 7.20459 12.4366 5.22152 8.94698C4.52313 7.70943 4.63408 6.30058 5.68539 5.32801C5.88657 5.1412 6.11592 5.08545 6.35217 5.08545Z" fill="white"/>
<path d="M18.8227 7.68757C19.7269 12.8941 16.285 17.8288 11.1146 18.737C10.5582 18.8324 10.0081 18.8796 9.46434 18.8796C8.00722 18.8796 6.59665 18.5404 5.24241 17.8788C5.1286 17.8214 4.98547 17.7932 4.85212 17.7932C4.78544 17.7932 4.72106 17.8001 4.66358 17.8145C2.16261 18.4439 0.500278 18.9089 -0.00842285 19.0089C0.101939 18.6014 0.197933 18.2438 0.29335 17.8863C0.616964 16.7419 0.947478 15.6049 1.24925 14.4605C1.29351 14.2886 1.28086 14.0673 1.20326 13.9098C-1.65811 8.38882 1.3895 1.70213 7.47954 0.271446C8.23196 0.0955559 8.97288 0.012207 9.69426 0.012207C14.2829 0.012207 18.0709 3.38056 18.8227 7.68757ZM10.7255 17.2213C15.0077 16.5349 17.9628 12.5366 17.3449 8.27444C16.7701 4.34163 13.4466 1.56418 9.63276 1.56418C9.16085 1.56418 8.68088 1.60672 8.19805 1.69524C2.89836 2.6678 0.0427362 8.56816 2.63912 13.2453C2.92825 13.7604 3.00355 14.1892 2.79949 14.7398C2.56555 15.4049 2.41725 16.0918 2.204 16.8425C3.14265 16.5993 4.00946 16.3849 4.86994 16.1418C4.95041 16.1205 5.02398 16.1102 5.09468 16.1102C5.23896 16.1102 5.36944 16.1533 5.51257 16.2349C6.75127 16.9528 8.06009 17.3264 9.44249 17.3264C9.86325 17.3259 10.2909 17.2914 10.7255 17.2213Z" fill="white"/>
</svg>
